<svg xmlns="http://www.w3.org/2000/svg" width="px" height="px" viewBox="0 0 384 384"><path style="stroke:none;fill-rule:nonzero;fill:#d8dbba;fill-opacity:1" d="M378.059 192.004c0-102.766-83.301-186.059-186.055-186.059C89.242 5.945 5.94 89.238 5.94 192.004c0 102.754 83.301 186.055 186.063 186.055 102.754 0 186.055-83.301 186.055-186.055Zm0 0"/><path style="stroke:none;fill-rule:nonzero;fill:#b5392c;fill-opacity:1" d="M287.168 122.344s3.27 1.636 8.172 4.36c0 0 7.629 4.359 7.629 7.628 0 0 2.18 5.992-8.719 7.082 0 0-9.805-.547-14.164 1.633 0 0-15.797 5.855-18.524 11.848 0 0-25.34 3.722-26.148-8.036-1.09-15.797 9.805-26.695 9.805-26.695Zm0 0"/><path style="stroke:none;fill-rule:nonzero;fill:#cb4a35;fill-opacity:1" d="M263.2 98.555s3.265 8.535 14.706 8.535c0 0 11.442 0 17.98-1.09 0 0 13.618-3.813 7.626 4.36 0 0-12.348 20.156-24.516 23.972-12.168 3.813-26.148 5.445-37.59 7.082 0 0 0-39.59 21.793-42.86Zm0 0"/><path style="stroke:none;fill-rule:nonzero;fill:#edc92f;fill-opacity:1" d="M117.984 179.68c4.817 7.715 26.45 17.847 70.274 6.539 0 0-58.156-47.164-17.977-89.887 6.02-6.402 57.688-53.348 96.184 6.945 0 0-2.867-.273-3.27 1.09-1.336 4.563-3.375 13.88-6.172 17.797-3.632 5.082-15.253 5.809-14.527 13.8 0 0 2.18 24.696 19.61 18.161 0 0-4.54 10.895 2.906 20.336 7.449 9.445 39.082 22.922 42.718 53.039 3.5 29-9 60.5-41.265 72.992-9.059 3.508-65.375 25.063-135.836-1.816 0 0-58.11-13.801-53.754-118.403.004 0 8.719-52.48 41.11-.593Zm0 0"/><path style="stroke:none;fill-rule:nonzero;fill:#dbdbdb;fill-opacity:1" d="M243.95 106.727c0-5.918-4.716-10.715-10.536-10.715-5.816 0-10.531 4.797-10.531 10.715s4.715 10.714 10.531 10.714c5.82 0 10.535-4.796 10.535-10.714Zm0 0"/><path style="stroke:none;fill-rule:nonzero;fill:#606060;fill-opacity:1" d="M239.57 106.727c0-3.457-2.754-6.262-6.156-6.262-3.398 0-6.152 2.805-6.152 6.262 0 3.46 2.754 6.261 6.152 6.261 3.402 0 6.156-2.8 6.156-6.261Zm0 0"/><path style="stroke:none;fill-rule:nonzero;fill:#d3d3d3;fill-opacity:1" d="M237.027 104.004c0-1.418-1.129-2.567-2.523-2.567-1.395 0-2.524 1.149-2.524 2.567 0 1.418 1.13 2.566 2.524 2.566 1.394 0 2.523-1.148 2.523-2.566Zm0 0"/><path style="stroke:none;fill-rule:nonzero;fill:#e8af21;fill-opacity:1" d="M276.23 192.5s26 39.5 12.5 82.5c0 0 38-49.5-12.5-82.5ZM85.73 183.75s-1.5 82.5 46.5 104.25c0 0-33.75-42.75-46.5-104.25ZM165.23 117.75s-6 48 40.5 66c0 0-30-25.5-40.5-66Zm0 0"/></svg>