<svg xmlns="http://www.w3.org/2000/svg" width="px" height="px" viewBox="0 0 384 384"><path style="stroke:none;fill-rule:nonzero;fill:#d8dbba;fill-opacity:1" d="M5.941 192.004C5.941 89.238 89.242 5.94 191.996 5.94c102.762 0 186.063 83.297 186.063 186.063 0 102.754-83.301 186.055-186.063 186.055-102.754 0-186.055-83.301-186.055-186.055Zm0 0"/><path style="stroke:none;fill-rule:nonzero;fill:#826a4d;fill-opacity:1" d="M221.117 151.414c3.442-4.656 11.528-16.101 14.856-23.41 4.722-10.375 12.636-51.078 17.16-49.95 4.52 1.133 9.496 35.204 13.793 41.348 4.297 6.145 53.746 20.668 55.027 29.235 1.281 8.574-5.144 24.93-17.195 25.797-12.051.863-25.496-3.793-29.235-3.442-2.8.262-8.07 9.86-10.097 14.13ZM209.738 168.867l51.442 39.367s.507 106.578-1.723 108.34c-2.227 1.758-13.676 1.266-15.371-.5-1.695-1.77-9.047-65.582-12.723-70.953-3.672-5.375-62.468-13.855-73.777-8.203-11.309 5.656-28.27 42.402-28.27 42.402s.555 38.73-.984 40.145c-1.539 1.41-12.246 2.191-14.844 0-2.593-2.195-3.804-32.856-4.93-43.535-.847-8.055 7.333-26.149 7.758-35.051.887-18.656-6.504-48.617-6.504-48.617s-30.874-54.88-25.753-57.969c5.12-3.094 33.23 37.535 37.832 39.555 4.601 2.015 87.847-4.98 87.847-4.98Zm0 0"/><path style="stroke:none;fill-rule:nonzero;fill:#493e30;fill-opacity:1" d="m86.918 67.031 174.977 134.7 2.12-10.602L96.528 61.383Zm0 0"/></svg>