<svg xmlns="http://www.w3.org/2000/svg" width="px" height="px" viewBox="0 0 384 384"><path style="stroke:none;fill-rule:nonzero;fill:#4abc96;fill-opacity:1" d="M378.059 192.004c0-102.766-83.301-186.059-186.055-186.059C89.242 5.945 5.94 89.238 5.94 192.004c0 102.754 83.301 186.055 186.063 186.055 102.754 0 186.055-83.301 186.055-186.055Zm0 0"/><path style="stroke:none;fill-rule:nonzero;fill:#e5e2d1;fill-opacity:1" d="M191.148 104.078c17.586 0 30.407-13.492 34.235-16.305 0 0 2.328-2.382 3.937-5.164-1.691.051-3.093.329-3.937.946-3.828 2.816-16.645 16.312-34.235 16.312s-27.609-13.84-34.23-16.312c-.996-.371-2.578-.485-4.453-.434a1154.7 1154.7 0 0 1 4.453 4.652c5.035 3.938 16.64 16.305 34.23 16.305Zm0 0"/><path style="stroke:none;fill-rule:nonzero;fill:#efede6;fill-opacity:1" d="M302.68 101.227s-67.368-18.793-73.36-18.618c-7.445 8.258-20.582 21.47-38.172 21.47-17.59 0-32.234-14.81-38.683-20.958-6.692.188-71.04 18.106-71.04 18.106-7.034 1.867-4.66 8.023-3.136 13.75l7.953 29.957c1.52 5.718 1.613 8.847 8.649 6.98l21.902-5.816v142.214c0 16.75 13.578 12.633 30.332 12.633h87.629c16.754 0 30.332 4.114 30.332-12.632V145.507l24.129 6.406c.672.172 1.223.27 1.773.356l12.684-50.645c-.336-.133-.602-.293-.992-.398Zm0 0"/><path style="stroke:none;fill-rule:nonzero;fill:#e5e2d1;fill-opacity:1" d="m297.867 144.934 7.953-29.957c1.442-5.399 3.535-11.145-2.148-13.352l-12.68 50.648c5.242.852 5.5-2.164 6.875-7.34ZM86.129 144.934l-7.945-29.957c-1.446-5.399-3.54-11.145 2.14-13.352l12.684 50.648c-5.242.852-5.504-2.164-6.88-7.34Zm0 0"/></svg>