<svg xmlns="http://www.w3.org/2000/svg" width="px" height="px" viewBox="0 0 384 384"><path style="stroke:none;fill-rule:nonzero;fill:#a3d5e0;fill-opacity:1" d="M378.059 192.004c0-102.766-83.301-186.059-186.055-186.059C89.242 5.945 5.94 89.238 5.94 192.004c0 102.754 83.301 186.055 186.063 186.055 102.754 0 186.055-83.301 186.055-186.055Zm0 0"/><path style="stroke:none;fill-rule:nonzero;fill:#81b23b;fill-opacity:1" d="M378.059 192.004H5.94c0 102.754 83.301 186.055 186.063 186.055 102.754 0 186.055-83.301 186.055-186.055Zm0 0"/><path style="stroke:none;fill-rule:nonzero;fill:#edaf6b;fill-opacity:1" d="M282.434 208.055c0 61.89-40.489 99.61-90.434 99.61s-90.434-37.72-90.434-99.61c0-61.887 40.489-131.715 90.434-131.715s90.434 69.828 90.434 131.715Zm0 0"/><path style="stroke:none;fill-rule:nonzero;fill:#ed4571;fill-opacity:1" d="M239.047 235.008c-8.856-3.54-17.219-6.887-24.113-6.887-6.86 0-14.75 3.309-23.11 6.809-7.777 3.261-15.82 6.629-22.023 6.629-6.43 0-14.992-3.536-23.27-6.954-8.07-3.335-15.691-6.484-21.613-6.484-7.895 0-16.203 2.887-20.973 4.867.407 2.047.871 4.059 1.38 6.032 4.066-1.75 12.226-4.813 19.593-4.813 4.715 0 12.125 3.063 19.289 6.02 8.828 3.648 17.957 7.418 25.594 7.418 7.43 0 16.047-3.61 24.379-7.102 7.433-3.117 15.117-6.336 20.757-6.336 5.72 0 13.918 3.281 21.848 6.453 8.59 3.434 17.469 6.985 24.55 6.985 6.411 0 11.83-1.598 15.845-3.348a110.133 110.133 0 0 0 2.168-8.024c-2.887 1.836-9.45 5.286-18.012 5.286-5.91.004-14.238-3.329-22.29-6.551Zm0 0"/><path style="stroke:none;fill-rule:nonzero;fill:#dd2c52;fill-opacity:1" d="M275.7 248.7c-20.118 15.59-50.145 14.94-83.7 14.94s-63.582.65-83.695-14.94c13.507 37.347 45.89 58.964 83.695 58.964 37.805 0 70.188-21.617 83.7-58.965Zm0 0"/><path style="stroke:none;fill-rule:nonzero;fill:#64a80d;fill-opacity:1" d="M282.395 211.25c-.004.07-.008.137-.008.203h.015c-.004-.07-.007-.137-.007-.203ZM101.602 211.363h.007c0-.039-.004-.082-.004-.12 0 .038-.003.077-.003.12ZM282.348 203.254c-22.446 3.133-54.23 6.355-90.04 6.355-36.312 0-68.32-3.316-90.652-6.488-.054 1.649-.09 3.297-.09 4.934 0 1.293.024 2.57.059 3.84 16.473 3.015 48.32 7.605 89.602 7.605 40.976 0 73.808-4.523 91.144-7.54.035-1.292.063-2.589.063-3.905 0-1.594-.036-3.2-.086-4.801Zm0 0"/><path style="stroke:none;fill-rule:nonzero;fill:#f4d038;fill-opacity:1" d="M202.852 192.75c0 5.992-4.86 10.852-10.852 10.852s-10.852-4.86-10.852-10.852 4.86-10.852 10.852-10.852 10.852 4.86 10.852 10.852Zm0 0"/><path style="stroke:none;fill-rule:nonzero;fill:#276d69;fill-opacity:1" d="M186.625 167.266c23.234-19.399 24.777-7.828 31.676-.938 6.765 6.762 17.816 8.281-.934 31.668-18.664 23.293-72.215 41.484-72.215 41.484s18.59-53.101 41.473-72.214Zm0 0"/><path style="stroke:none;fill-rule:nonzero;fill:#355957;fill-opacity:1" d="M218.3 166.328c6.766 6.762 17.817 8.281-.933 31.668-18.664 23.293-72.215 41.484-72.215 41.484Zm0 0"/><path style="stroke:none;fill-rule:nonzero;fill:#e79e2d;fill-opacity:1" d="M340.543 79.957c.012.016.023.031.039.047l3.055-2.594 1.761-1.539c-.023-.027-.046-.055-.066-.082-.414.375-.789.723-1.074 1.012Zm0 0"/><path style="stroke:none;fill-rule:nonzero;fill:#e79e2d;fill-opacity:1" d="m228.043 175.598 112.539-95.594c-.016-.016-.027-.031-.039-.047l-112.414 95.547c-1.734 1.738-7.57-2.566-12.59-7.688 0 0 75.852-75.855 107.7-107.699a186.679 186.679 0 0 0-19.97-17.25L207.759 155.32c-3.035 3.032 16.824 23.727 20.285 20.278Zm0 0"/><path style="stroke:none;fill-rule:nonzero;fill:#d68a28;fill-opacity:1" d="M323.238 60.117c-31.847 31.844-107.699 107.7-107.699 107.7 5.02 5.12 10.852 9.425 12.59 7.687l112.414-95.547a187.067 187.067 0 0 0-17.305-19.84Zm0 0"/><path style="stroke:none;fill-rule:nonzero;fill:#cdcccb;fill-opacity:1" d="m227.988 175.64 93.594-78.788L286.5 61.773l-78.785 93.594c-2.887 2.875 16.992 23.555 20.273 20.274Zm0 0"/><path style="stroke:none;fill-rule:nonzero;fill:#b1b1b2;fill-opacity:1" d="m227.988 175.64 93.594-78.788L304.023 79.3s-89.18 87.808-88.484 88.508c5.074 5.074 10.809 9.476 12.45 7.832Zm0 0"/><path style="stroke:none;fill-rule:nonzero;fill:#bfbebe;fill-opacity:1" d="m246.48 157.848 67.926-55.012-32.761-35.273-57.063 68.218c-2.195 2.188 19.402 24.559 21.898 22.067Zm0 0"/><path style="stroke:none;fill-rule:nonzero;fill:#aaa;fill-opacity:1" d="m227.988 175.64 87.762-73.874-17.14-17.141s-83.583 82.672-83.07 83.184c5.073 5.074 10.808 9.476 12.448 7.832Zm0 0"/></svg>