<?xml version="1.0" encoding="UTF-8"?>
<svg xmlns="http://www.w3.org/2000/svg" xmlns:xlink="http://www.w3.org/1999/xlink" width="36px" height="36px" viewBox="0 0 36 36" version="1.1">
<g id="surface1">
<path style=" stroke:none;fill-rule:nonzero;fill:rgb(0%,0%,0%);fill-opacity:1;" d="M 7.355469 1.355469 C 7.070312 2.355469 6.285156 2.855469 4.355469 3 L 1.785156 3.214844 L 1.785156 33.929688 L 33.929688 33.929688 L 33.929688 3.214844 L 31.355469 3 C 29.429688 2.855469 28.644531 2.355469 28.355469 1.355469 C 27.855469 -0.5 25 -0.429688 24.5 1.429688 C 24.144531 2.714844 23.5 2.855469 17.855469 2.855469 C 12.214844 2.855469 11.570312 2.714844 11.214844 1.429688 C 10.714844 -0.429688 7.855469 -0.5 7.355469 1.355469 Z M 10 3.570312 C 10 4.714844 9.714844 5.714844 9.285156 5.714844 C 8.929688 5.714844 8.570312 4.714844 8.570312 3.570312 C 8.570312 2.355469 8.929688 1.429688 9.285156 1.429688 C 9.714844 1.429688 10 2.355469 10 3.570312 Z M 27.144531 3.570312 C 27.144531 4.714844 26.855469 5.714844 26.429688 5.714844 C 26.070312 5.714844 25.714844 4.714844 25.714844 3.570312 C 25.714844 2.355469 26.070312 1.429688 26.429688 1.429688 C 26.855469 1.429688 27.144531 2.355469 27.144531 3.570312 Z M 7.355469 5.714844 C 7.570312 6.570312 8.355469 7.144531 9.285156 7.144531 C 10.214844 7.144531 11 6.570312 11.214844 5.714844 C 11.570312 4.429688 12.214844 4.285156 17.855469 4.285156 C 23.5 4.285156 24.144531 4.429688 24.5 5.714844 C 24.714844 6.570312 25.5 7.144531 26.429688 7.144531 C 27.355469 7.144531 28.144531 6.570312 28.355469 5.714844 C 28.644531 4.714844 29.355469 4.285156 30.785156 4.285156 C 32.644531 4.285156 32.855469 4.5 32.855469 6.785156 L 32.855469 9.285156 L 2.855469 9.285156 L 2.855469 6.785156 C 2.855469 4.5 3.070312 4.285156 4.929688 4.285156 C 6.355469 4.285156 7.070312 4.714844 7.355469 5.714844 Z M 32.855469 21.785156 L 32.855469 32.855469 L 2.855469 32.855469 L 2.855469 10.714844 L 32.855469 10.714844 Z M 32.855469 21.785156 "/>
<path style=" stroke:none;fill-rule:nonzero;fill:rgb(0%,0%,0%);fill-opacity:1;" d="M 7.144531 21.785156 L 7.144531 30 L 28.570312 30 L 28.570312 13.570312 L 7.144531 13.570312 Z M 12.144531 16.785156 C 12.144531 18.214844 11.785156 18.570312 10.355469 18.570312 C 8.929688 18.570312 8.570312 18.214844 8.570312 16.785156 C 8.570312 15.355469 8.929688 15 10.355469 15 C 11.785156 15 12.144531 15.355469 12.144531 16.785156 Z M 17.144531 16.785156 C 17.144531 18.214844 16.785156 18.570312 15.355469 18.570312 C 13.929688 18.570312 13.570312 18.214844 13.570312 16.785156 C 13.570312 15.355469 13.929688 15 15.355469 15 C 16.785156 15 17.144531 15.355469 17.144531 16.785156 Z M 22.144531 16.785156 C 22.144531 18.214844 21.785156 18.570312 20.355469 18.570312 C 18.929688 18.570312 18.570312 18.214844 18.570312 16.785156 C 18.570312 15.355469 18.929688 15 20.355469 15 C 21.785156 15 22.144531 15.355469 22.144531 16.785156 Z M 27.144531 16.785156 C 27.144531 18.214844 26.785156 18.570312 25.355469 18.570312 C 23.929688 18.570312 23.570312 18.214844 23.570312 16.785156 C 23.570312 15.355469 23.929688 15 25.355469 15 C 26.785156 15 27.144531 15.355469 27.144531 16.785156 Z M 12.144531 21.785156 C 12.144531 23.214844 11.785156 23.570312 10.355469 23.570312 C 8.929688 23.570312 8.570312 23.214844 8.570312 21.785156 C 8.570312 20.355469 8.929688 20 10.355469 20 C 11.785156 20 12.144531 20.355469 12.144531 21.785156 Z M 17.144531 21.785156 C 17.144531 23.214844 16.785156 23.570312 15.355469 23.570312 C 13.929688 23.570312 13.570312 23.214844 13.570312 21.785156 C 13.570312 20.355469 13.929688 20 15.355469 20 C 16.785156 20 17.144531 20.355469 17.144531 21.785156 Z M 27.144531 21.785156 C 27.144531 23.214844 26.785156 23.570312 25.355469 23.570312 C 23.929688 23.570312 23.570312 23.214844 23.570312 21.785156 C 23.570312 20.355469 23.929688 20 25.355469 20 C 26.785156 20 27.144531 20.355469 27.144531 21.785156 Z M 12.144531 26.785156 C 12.144531 28.214844 11.785156 28.570312 10.355469 28.570312 C 8.929688 28.570312 8.570312 28.214844 8.570312 26.785156 C 8.570312 25.355469 8.929688 25 10.355469 25 C 11.785156 25 12.144531 25.355469 12.144531 26.785156 Z M 17.144531 26.785156 C 17.144531 28.214844 16.785156 28.570312 15.355469 28.570312 C 13.929688 28.570312 13.570312 28.214844 13.570312 26.785156 C 13.570312 25.355469 13.929688 25 15.355469 25 C 16.785156 25 17.144531 25.355469 17.144531 26.785156 Z M 22.144531 26.785156 C 22.144531 28.214844 21.785156 28.570312 20.355469 28.570312 C 18.929688 28.570312 18.570312 28.214844 18.570312 26.785156 C 18.570312 25.355469 18.929688 25 20.355469 25 C 21.785156 25 22.144531 25.355469 22.144531 26.785156 Z M 27.144531 26.785156 C 27.144531 28.214844 26.785156 28.570312 25.355469 28.570312 C 23.929688 28.570312 23.570312 28.214844 23.570312 26.785156 C 23.570312 25.355469 23.929688 25 25.355469 25 C 26.785156 25 27.144531 25.355469 27.144531 26.785156 Z M 27.144531 26.785156 "/>
</g>
</svg>
