<svg xmlns="http://www.w3.org/2000/svg" width="px" height="px" viewBox="0 0 384 384"><path style="stroke:none;fill-rule:nonzero;fill:#4abc96;fill-opacity:1" d="M378.059 192.004c0-102.766-83.301-186.059-186.055-186.059C89.242 5.945 5.94 89.238 5.94 192.004c0 102.754 83.301 186.055 186.063 186.055 102.754 0 186.055-83.301 186.055-186.055Zm0 0"/><path style="stroke:none;fill-rule:nonzero;fill:#e8e6e6;fill-opacity:1" d="M204.895 126.957c0-25.516 7.511-46.574 33.242-46.574 41.07 0 56.207 45.187 56.207 70.699 0 2.133-.156 4.137-.438 6.031l.399.133-5.864 51.332-6.359 61.496h-.016c-.359 18.184-13.64 29.363-34.046 29.805-18.098-.442-30.868-11.621-31.23-29.805 0 0-2.571-49.047-2.571-68.363 0-13.633-5.922-45.254-7.906-62.684-.926-4.09-1.418-8.16-1.418-12.07Zm0 0"/><path style="stroke:none;fill-rule:nonzero;fill:#f7f3f2;fill-opacity:1" d="M211.895 131.902c0-23.52 6.335-42.93 28.039-42.93 34.64 0 47.41 41.65 47.41 65.169 0 1.964-.133 3.808-.367 5.558l.332.117-4.942 47.32-5.363 56.68h-.016c-.304 16.762-11.504 27.067-28.718 27.473-15.266-.406-26.036-10.71-26.34-27.473 0 0-2.172-45.203-2.172-63.011 0-12.567-4.992-41.715-6.668-57.778-.781-3.77-1.195-7.523-1.195-11.125Zm0 0"/><path style="stroke:none;fill-rule:nonzero;fill:#806c69;fill-opacity:1" d="M213.883 169.691s10.14 26.567 3.98 35.551c0 0-3.086-9.754-7.449-21.304Zm0 0"/><path style="stroke:none;fill-rule:nonzero;fill:#ab908c;fill-opacity:1" d="M241.73 119.254s-12.734 17.164-17.453 25.797c-7.89 14.437-13.476 39.847-13.476 39.847s-3.266-7.761-2.953-16.363c.261-6.93 2.968-17.12 8.925-28.773 5.961-11.653 24.829-35.137 24.829-35.137Zm0 0"/><path style="stroke:none;fill-rule:nonzero;fill:#806c69;fill-opacity:1" d="M286.926 170.656s-9.172 25.602-3.012 34.586c0 0 3.078-9.754 7.441-21.304Zm0 0"/><path style="stroke:none;fill-rule:nonzero;fill:#ab908c;fill-opacity:1" d="M241.73 119.254s14.504 8.855 26.184 22.59c15.281 17.969 23.059 43.054 23.059 43.054s5.515-8.148 2.953-16.363c-1.094-3.496-8.82-20.789-18.512-31.98-14.531-16.77-33.812-31.93-33.812-31.93Zm0 0"/><path style="stroke:none;fill-rule:nonzero;fill:#5f4744;fill-opacity:1" d="M246.27 113.563a3.773 3.773 0 1 1-3.77-3.774 3.773 3.773 0 0 1 3.77 3.773Zm0 0"/><path style="stroke:none;fill-rule:nonzero;fill:#e8e6e6;fill-opacity:1" d="M179.105 126.957c0-25.516-7.511-46.574-33.242-46.574-41.07 0-56.207 45.187-56.207 70.699 0 2.133.156 4.137.438 6.031l-.399.133 5.864 51.332 6.359 61.496h.016c.359 18.184 13.64 29.363 34.046 29.805 18.098-.442 30.868-11.621 31.23-29.805 0 0 2.571-49.047 2.571-68.363 0-13.633 5.922-45.254 7.906-62.684.926-4.09 1.418-8.16 1.418-12.07Zm0 0"/><path style="stroke:none;fill-rule:nonzero;fill:#f7f3f2;fill-opacity:1" d="M172.105 131.902c0-23.52-6.335-42.93-28.039-42.93-34.64 0-47.41 41.65-47.41 65.169 0 1.964.133 3.808.367 5.558l-.332.117 4.942 47.32 5.363 56.68h.016c.304 16.762 11.504 27.067 28.718 27.473 15.266-.406 26.036-10.71 26.34-27.473 0 0 2.172-45.203 2.172-63.011 0-12.567 4.992-41.715 6.668-57.778.781-3.77 1.195-7.523 1.195-11.125Zm0 0"/><path style="stroke:none;fill-rule:nonzero;fill:#806c69;fill-opacity:1" d="M170.117 169.691s-10.14 26.567-3.98 35.551c0 0 3.086-9.754 7.449-21.304Zm0 0"/><path style="stroke:none;fill-rule:nonzero;fill:#ab908c;fill-opacity:1" d="M142.27 119.254s12.734 17.164 17.453 25.797c7.89 14.437 13.476 39.847 13.476 39.847s3.266-7.761 2.953-16.363c-.261-6.93-2.968-17.12-8.925-28.773-5.961-11.653-24.829-35.137-24.829-35.137Zm0 0"/><path style="stroke:none;fill-rule:nonzero;fill:#806c69;fill-opacity:1" d="M97.074 170.656s9.172 25.602 3.012 34.586c0 0-3.078-9.754-7.441-21.304Zm0 0"/><path style="stroke:none;fill-rule:nonzero;fill:#ab908c;fill-opacity:1" d="M142.27 119.254s-14.504 8.855-26.184 22.59c-15.281 17.969-23.059 43.054-23.059 43.054s-5.515-8.148-2.953-16.363c1.094-3.496 8.82-20.789 18.512-31.98 14.531-16.77 33.812-31.93 33.812-31.93Zm0 0"/><path style="stroke:none;fill-rule:nonzero;fill:#5f4744;fill-opacity:1" d="M145.273 113.563a3.773 3.773 0 1 1-7.543 0 3.773 3.773 0 1 1 7.543 0Zm0 0"/></svg>