<svg xmlns="http://www.w3.org/2000/svg" width="px" height="px" viewBox="0 0 384 384"><path style="stroke:none;fill-rule:nonzero;fill:#d8dbba;fill-opacity:1" d="M5.941 192.004C5.941 89.238 89.242 5.94 191.996 5.94c102.762 0 186.063 83.297 186.063 186.063 0 102.754-83.301 186.055-186.063 186.055-102.754 0-186.055-83.301-186.055-186.055Zm0 0"/><path style="stroke:none;fill-rule:nonzero;fill:#ba6d20;fill-opacity:1" d="M110.914 279.332c0-46.187 18.402-116.527 83.637-116.527 60.219 0 83.637 70.34 83.637 116.527 0 22.715-6.704 45.606-23.75 45.606-39.254 0-35.848-26.645-59.329-26.645-21.293 0-23.976 28.988-56.047 28.988-19.16 0-28.148-23.047-28.148-47.949ZM113.621 137.465c13.567 17.148 14.574 38.945 2.258 48.691-12.317 9.742-33.297 3.739-46.867-13.41-13.559-17.144-14.57-38.941-2.254-48.684 12.316-9.746 33.297-3.742 46.863 13.403ZM272.586 137.465c-13.563 17.148-14.578 38.945-2.258 48.691 12.317 9.742 33.297 3.739 46.863-13.41 13.563-17.144 14.575-38.941 2.258-48.684-12.316-9.746-33.297-3.742-46.863 13.403ZM203.617 102.457c-3.937 23.012 5.528 43.43 21.145 45.61 15.61 2.183 31.457-14.708 35.398-37.712 3.938-23.011-5.527-43.425-21.144-45.605-15.614-2.176-31.461 14.707-35.399 37.707ZM184.836 102.457c3.937 23.012-5.527 43.43-21.145 45.61-15.613 2.183-31.457-14.708-35.398-37.712-3.938-23.011 5.527-43.425 21.144-45.605 15.61-2.176 31.458 14.707 35.399 37.707Zm0 0"/><path style="stroke:none;fill-rule:nonzero;fill:#9b581c;fill-opacity:1" d="M197.355 158.89c-32.125 0-52.875 17.07-65.68 39.907 12.966-20.332 32.962-35.012 62.743-35.012 60.219 0 83.637 70.34 83.637 116.531 0 12.02-1.903 24.059-6.2 32.762 6.395-8.648 9.137-23.176 9.137-37.656 0-46.195-23.418-116.531-83.637-116.531ZM66.625 125.04c12.316-9.747 33.297-3.74 46.863 13.405 10.492 13.262 13.438 29.282 8.551 40.38 8.586-10.81 6.55-29.9-5.613-45.278-13.567-17.145-34.547-23.149-46.864-13.402-2.789 2.207-4.859 5.058-6.292 8.308.988-1.246 2.082-2.406 3.355-3.414ZM319.316 125.04c10.45 8.265 11.27 25.202 3.004 40.62 11.309-16.574 11.504-36.363-.066-45.515-12.317-9.747-33.297-3.743-46.863 13.402a54.377 54.377 0 0 0-5.262 8.066 56.612 56.612 0 0 1 2.324-3.168c13.567-17.144 34.547-23.152 46.863-13.406ZM238.883 65.727c15.617 2.183 25.086 22.601 21.148 45.605-1.14 6.64-3.293 12.742-6.12 18.05 4.304-6.277 7.55-14.16 9.054-22.948 3.937-23.004-5.524-43.422-21.14-45.602-11.11-1.547-22.317 6.578-29.29 19.668 6.965-10.168 16.7-16.117 26.348-14.773ZM149.305 65.727c15.61-2.176 31.457 14.71 35.398 37.714 2.043 11.922.457 23.13-3.695 31.485 6.293-8.535 9.101-21.946 6.633-36.383-3.938-23.004-19.79-39.887-35.399-37.711-7.523 1.05-13.594 6.36-17.453 14.125 3.738-5.066 8.695-8.418 14.516-9.23Zm0 0"/><path style="stroke:none;fill-rule:nonzero;fill:#9b581c;fill-opacity:1" d="M257.242 321.023c-39.254 0-35.847-26.644-59.328-26.644-21.293 0-23.976 28.984-56.047 28.984-19.16 0-28.148-23.043-28.148-47.941 0-23.445 4.758-53.094 17.957-76.625-15.434 24.2-20.89 56.418-20.89 81.52 0 24.902 8.984 47.94 28.144 47.94 32.07 0 34.754-28.984 56.047-28.984 23.48 0 20.074 26.649 59.328 26.649 8.02 0 13.73-5.11 17.55-12.844-3.636 4.914-8.433 7.945-14.613 7.945ZM122.04 178.824c-.99 1.246-2.083 2.41-3.356 3.414-12.317 9.742-33.297 3.742-46.864-13.406-10.488-13.262-13.433-29.285-8.55-40.379-8.583 10.809-6.547 29.899 5.609 45.277 13.57 17.145 34.55 23.145 46.871 13.407 2.79-2.207 4.86-5.059 6.29-8.313ZM320 168.832c-13.57 17.148-34.55 23.148-46.867 13.406-10.45-8.27-11.27-25.207-3.004-40.625-11.309 16.582-11.504 36.367.066 45.52 12.317 9.742 33.297 3.738 46.864-13.406 2.058-2.598 3.785-5.313 5.261-8.067a54.717 54.717 0 0 1-2.32 3.172ZM224.629 149.047c11.105 1.55 22.309-6.574 29.281-19.664-6.96 10.164-16.695 16.117-26.344 14.765-15.617-2.18-25.082-22.601-21.144-45.605 1.137-6.637 3.289-12.734 6.113-18.043-4.3 6.277-7.547 14.156-9.05 22.938-3.938 23.007 5.527 43.43 21.144 45.609ZM128.16 111.332c3.942 23.004 19.785 39.895 35.403 37.711 7.519-1.047 13.59-6.356 17.449-14.121-3.739 5.066-8.696 8.414-14.516 9.226-15.613 2.184-31.457-14.703-35.398-37.714-2.04-11.922-.457-23.121 3.695-31.477-6.293 8.531-9.106 21.941-6.633 36.375Zm0 0"/></svg>