<svg xmlns="http://www.w3.org/2000/svg" width="px" height="px" viewBox="0 0 384 384"><path style="stroke:none;fill-rule:nonzero;fill:#d8dbba;fill-opacity:1" d="M378.059 192.004c0-102.766-83.301-186.059-186.055-186.059C89.242 5.945 5.94 89.238 5.94 192.004c0 102.75 83.301 186.055 186.063 186.055 102.754 0 186.055-83.305 186.055-186.055Zm0 0"/><path style="stroke:none;fill-rule:nonzero;fill:#000;fill-opacity:1" d="M320.957 207.867c0 24.04-19.484 43.524-43.52 43.524H102.133c-24.04 0-43.524-19.485-43.524-43.524v-28.715c0-24.035 19.485-43.52 43.524-43.52h175.305c24.035 0 43.519 19.485 43.519 43.52Zm0 0"/><path style="stroke:none;fill-rule:nonzero;fill:#000;fill-opacity:1" d="M279.703 192c0-49.996-40.258-90.523-89.918-90.523-49.66 0-89.918 40.527-89.918 90.523 0 49.996 40.258 90.523 89.918 90.523 49.66 0 89.918-40.527 89.918-90.523Zm0 0"/><path style="stroke:none;fill-rule:nonzero;fill:#fff;fill-opacity:1" d="m177.035 242.836 101.442-.082s33.039-4.059 33.039-33.98v-29.922s-3.93-34.153-34.457-34.153h-46.547s-35.364 1.207-35.364 36.27v26.597s1.532 18.043-18.113 35.27ZM150.719 163.133h-16.32l-4.989 34.004-6.195-33.852h-14.66l-6.348 33.852-4.836-33.852H80.75l13.902 57.883h14.657l6.351-35.664 6.496 35.664h14.809ZM157.672 179.004h14.96v41.86h-14.96ZM173.992 167.293c0 4.129-3.89 7.48-8.687 7.48-4.801 0-8.692-3.351-8.692-7.48 0-4.133 3.89-7.48 8.692-7.48 4.797 0 8.687 3.347 8.687 7.48Zm0 0"/><path style="stroke:none;fill-rule:nonzero;fill:#000;fill-opacity:1" d="M274.336 179.004h14.96v41.86h-14.96ZM290.66 167.293c0-4.133-3.89-7.48-8.691-7.48-4.797 0-8.688 3.347-8.688 7.48 0 4.129 3.89 7.48 8.688 7.48 4.8 0 8.691-3.351 8.691-7.48ZM215.398 163.285h49.72v13.602h-33.7v12.847h30.379v13.45h-30.379v17.53h-16.02Zm0 0"/><path style="stroke:none;fill-rule:nonzero;fill:#231f20;fill-opacity:1" d="M319.18 138.695h-3.61v-1.304h8.778v1.304h-3.621v10.551h-1.547ZM335.66 144.04c-.09-1.653-.195-3.657-.195-5.118h-.035a89.863 89.863 0 0 1-1.493 4.504l-2.093 5.75h-1.16l-1.938-5.645c-.562-1.687-1.02-3.203-1.351-4.61h-.04a161.86 161.86 0 0 1-.226 5.243l-.317 5.082h-1.46l.828-11.855h1.953l2.023 5.734c.492 1.46.88 2.762 1.196 3.992h.035c.316-1.195.738-2.496 1.265-3.992l2.11-5.734h1.953l.738 11.855h-1.512Zm0 0"/></svg>