<svg xmlns="http://www.w3.org/2000/svg" width="px" height="px" viewBox="0 0 384 384"><path style="stroke:none;fill-rule:nonzero;fill:#a3d5e0;fill-opacity:1" d="M378.059 192.004c0-102.766-83.301-186.063-186.055-186.063C89.242 5.941 5.94 89.238 5.94 192.004c0 102.75 83.301 186.055 186.063 186.055 102.754 0 186.055-83.305 186.055-186.055Zm0 0"/><path style="stroke:none;fill-rule:nonzero;fill:#81b23b;fill-opacity:1" d="M378.059 192.004H5.94c0 102.75 83.301 186.055 186.063 186.055 102.754 0 186.055-83.305 186.055-186.055Zm0 0"/><path style="stroke:none;fill-rule:nonzero;fill:#a37938;fill-opacity:1" d="M219.852 151.785S69.55 160.797 90.59 285.551c0 0 15.031 49.601 72.144 24.047 0 0 60.348-23.782 75.383-35.801 0 0-4.64 36.078 14.906 46.598 0 0 20.918 7.52 26.934-1.5 0 0 6.27-13.239-10.453-15.563-3.676-.508-15.457 7.125-12.074-10.914 0 0 28.925-68.867 25.547-113.957l-1.133-21.422-38.324-34.945Zm0 0"/><path style="stroke:none;fill-rule:nonzero;fill:#966c35;fill-opacity:1" d="M264.46 79.73c1.497 16.45-19.026 19.692-26.25 21-6.538 1.176-30-80.25-19.5-84.75 6.962-2.98 43.5 39 45.75 63.75Zm0 0"/><path style="stroke:none;fill-rule:nonzero;fill:#a37938;fill-opacity:1" d="M243.371 83.563c2.078 13.98-8.324 25-15.66 24.667-27.64-1.25-39.75-77.25-30.418-84.226 5.191-3.879 43.168 39.976 46.078 59.558Zm0 0"/><path style="stroke:none;fill-rule:nonzero;fill:#a37938;fill-opacity:1" d="M308.098 123.5c13.515 22.684-20.903 47.809-46.684 47.809-25.785 0-46.687-21.403-46.687-47.809s20.902-47.809 46.687-47.809c25.781 0 30.934 21.371 46.684 47.809Zm0 0"/><path style="stroke:none;fill-rule:nonzero;fill:#564030;fill-opacity:1" d="M271.59 110.809c0 4.578-3.902 8.289-8.738 8.289-4.832 0-8.739-3.711-8.739-8.29 0-4.578 3.907-8.292 8.739-8.292 4.836 0 8.738 3.714 8.738 8.293Zm0 0"/><path style="stroke:none;fill-rule:nonzero;fill:#ad844e;fill-opacity:1" d="m308.043 123.45-10.395 3.534s-.39 11.938 11.29 13.895c0 0 1.152-.828 1.285-1.32.664-2.422 1.28-9.614-2.18-16.11Zm0 0"/><path style="stroke:none;fill-rule:nonzero;fill:#a37938;fill-opacity:1" d="m308.043 123.45-9.89 3.015s1.257 11.058 12.07 13.094c0 0 1.98-8.301-2.18-16.11ZM137.36 300.313s75.593-5.227 74.898 12.19c-.2 4.954-3.832 9.06-11.211 9.763 0 0-26.762 3.828-36.77-1.426-5.824-3.055-35.976-3.805-35.976-3.805ZM109.52 282.305c-3.817 6.68-14.637 7.687-24.184 2.242-9.543-5.445-14.195-15.277-10.383-21.953 3.809-6.684 14.637-7.688 24.184-2.242 9.543 5.441 14.191 15.273 10.383 21.953Zm0 0"/><path style="stroke:none;fill-rule:nonzero;fill:#966c35;fill-opacity:1" d="M150.598 222.512s65.84 19.86 34.488 77.687c0 0 42.152-58.527-34.488-77.687Zm0 0"/></svg>