<svg xmlns="http://www.w3.org/2000/svg" width="px" height="px" viewBox="0 0 384 384"><path style="stroke:none;fill-rule:nonzero;fill:#48a1af;fill-opacity:1" d="M5.941 192C5.941 89.238 89.242 5.941 191.996 5.941 294.758 5.941 378.06 89.238 378.06 192c0 102.754-83.301 186.063-186.063 186.063C89.242 378.063 5.941 294.752 5.941 192Zm0 0"/><path style="stroke:none;fill-rule:nonzero;fill:#17474c;fill-opacity:1" d="M259.781 307.402c0 17.391-12.832 31.489-28.668 31.489h-78.23c-15.828 0-28.664-14.098-28.664-31.489 0 0 6.566-68.21 11.941-85.273 5.375-17.047 12.832-31.48 28.668-31.48h56.734c15.829 0 24.485 10.492 28.665 31.48 4.18 20.996 9.554 85.273 9.554 85.273Zm0 0"/><path style="stroke:none;fill-rule:nonzero;fill:#0e2c2d;fill-opacity:1" d="m192.633 338.98-39.75-.09c-15.828 0-28.664-14.097-28.664-31.488 0 0 6.566-68.21 11.941-85.273 5.375-17.047 12.832-31.48 28.668-31.48h9.68l17.625-.169Zm0 0"/><path style="stroke:none;fill-rule:nonzero;fill:#e9c29c;fill-opacity:1" d="M259.781 307.402c0 17.391-12.832 31.489-28.668 31.489l-4.21-31.473Zm0 0"/><path style="stroke:none;fill-rule:nonzero;fill:#29636d;fill-opacity:1" d="m259.781 307.402-32.851.008-15.672-116.762h10.304c15.829 0 24.485 10.493 28.665 31.48 4.18 20.997 9.554 85.274 9.554 85.274Zm0 0"/><path style="stroke:none;fill-rule:nonzero;fill:#e9c29c;fill-opacity:1" d="M152.883 338.89c-15.828 0-28.664-14.097-28.664-31.488l34.586.098Zm0 0"/><path style="stroke:none;fill-rule:nonzero;fill:#29636d;fill-opacity:1" d="M124.219 307.402s6.566-68.21 11.941-85.273c5.375-17.047 12.832-31.48 28.668-31.48l9.68-.04L158.805 307.5Zm0 0"/><path style="stroke:none;fill-rule:nonzero;fill:#fff;fill-opacity:1" d="m173.863 306.074 13.063-103.3 3.574-4.583 1.93-.097 4.644 4.68 13.063 103.3-18.832 15.973Zm0 0"/><path style="stroke:none;fill-rule:nonzero;fill:#8dd3d5;fill-opacity:1" d="m183.328 231.215 15.715-12.863-.691-5.454L184.18 224.5ZM180.93 250.203l20.066-16.426-.695-5.453-18.52 15.164ZM178.527 269.18l24.418-19.98-.691-5.458-22.875 18.727ZM176.129 288.168l28.766-23.55-.688-5.446-27.23 22.281ZM173.863 306.074l.692.399 32.285-26.422-.684-5.453-31.578 25.84ZM184.277 315.629l24.524-20.16-.696-5.45-27.402 22.383Zm0 0"/><path style="stroke:none;fill-rule:nonzero;fill:#6fc5bc;fill-opacity:1" d="M200.262 200.254c0 4.738-3.79 8.574-8.461 8.574-4.672 0-8.461-3.836-8.461-8.574 0-4.727 3.793-8.563 8.46-8.563 4.673 0 8.462 3.836 8.462 8.563Zm0 0"/><path style="stroke:none;fill-rule:nonzero;fill:#e9c29c;fill-opacity:1" d="M246.941 127.617c0 30.348-24.597 54.942-54.941 54.942-30.348 0-54.941-24.594-54.941-54.942 0-30.344 24.593-54.941 54.941-54.941 30.344 0 54.941 24.597 54.941 54.941Zm0 0"/><path style="stroke:none;fill-rule:nonzero;fill:#492a15;fill-opacity:1" d="m246.941 127.617-37.46-33.71s-7.977 13.21-29.254 22.835c-20.516 9.274-43.168 10.875-43.168 10.875 0-30.344 24.593-54.941 54.941-54.941 30.344 0 54.941 24.597 54.941 54.941Zm0 0"/><path style="stroke:none;fill-rule:nonzero;fill:#343433;fill-opacity:1" d="M183.059 135.777c0-4.39-3.371-7.949-7.528-7.949-4.156 0-7.527 3.559-7.527 7.95 0 4.394 3.371 7.952 7.527 7.952 4.156 0 7.528-3.558 7.528-7.953ZM215.68 135.777c0 4.391-3.371 7.953-7.528 7.953-4.156 0-7.523-3.562-7.523-7.953 0-4.386 3.367-7.953 7.523-7.953 4.157 0 7.528 3.567 7.528 7.953Zm0 0"/><path style="stroke:none;fill-rule:nonzero;fill:#fff;fill-opacity:1" d="M213.516 132.766c0 1.754-1.348 3.18-3.012 3.18-1.656 0-3.008-1.426-3.008-3.18 0-1.758 1.352-3.18 3.008-3.18 1.664 0 3.012 1.426 3.012 3.18ZM180.813 132.766c0 1.754-1.344 3.18-3.012 3.18-1.66 0-3.008-1.426-3.008-3.18 0-1.758 1.348-3.18 3.008-3.18 1.668 0 3.012 1.426 3.012 3.18Zm0 0"/><path style="stroke:none;fill-rule:nonzero;fill:#492a15;fill-opacity:1" d="M167.293 152.762s1.09-1.535.457-2.918c-1.781-3.89-7.719-.98-7.316 4.32 0 0 .398 11 16.07 11.52 4.082.136 9.625-.75 14.059-5.645 3.062-3.383 2.23-9.605-1.7-11.055-4.234-1.558-9.675-.43-13.738 5.758-3.86 5.871-11.473 1.79-11.348-2.133.114-3.629 4.32-2.21 3.516.153Zm0 0"/><path style="stroke:none;fill-rule:nonzero;fill:#492a15;fill-opacity:1" d="M216.71 152.762s-1.093-1.535-.46-2.918c1.781-3.89 7.719-.98 7.316 4.32 0 0-.398 11-16.07 11.52-4.082.136-9.621-.75-14.059-5.645-3.062-3.383-2.23-9.605 1.7-11.055 4.234-1.558 9.675-.43 13.738 5.758 3.86 5.871 11.473 1.79 11.348-2.133-.114-3.629-4.32-2.21-3.512.153Zm0 0"/><path style="stroke:none;fill-rule:nonzero;fill:#e0b500;fill-opacity:1" d="M236.496 107.953s14.672-63.371-44.484-63.371c-59.153 0-44.473 63.371-44.473 63.371Zm0 0"/><path style="stroke:none;fill-rule:nonzero;fill:#edc92c;fill-opacity:1" d="m191.746 107.953.266-63.371c-59.153 0-44.473 63.371-44.473 63.371Zm0 0"/><path style="stroke:none;fill-rule:nonzero;fill:#edc92c;fill-opacity:1" d="M204.168 104.453s4.008-61.473-12.152-61.473-12.149 61.473-12.149 61.473Zm0 0"/><path style="stroke:none;fill-rule:nonzero;fill:#efd050;fill-opacity:1" d="m191.746 104.453.27-61.473c-16.16 0-12.153 61.473-12.153 61.473Zm0 0"/><path style="stroke:none;fill-rule:nonzero;fill:#dbb626;fill-opacity:1" d="M250.54 102.7c0 8.859-26.212 12.94-58.54 12.94s-58.535-4.081-58.535-12.94c0-8.86 26.207-2.466 58.535-2.466 32.328 0 58.54-6.394 58.54 2.465Zm0 0"/></svg>