<svg xmlns="http://www.w3.org/2000/svg" width="px" height="px" viewBox="0 0 384 384"><path style="stroke:none;fill-rule:nonzero;fill:#337180;fill-opacity:1" d="M378.059 192.004c0-102.766-83.301-186.059-186.055-186.059C89.242 5.945 5.94 89.238 5.94 192.004c0 102.75 83.301 186.055 186.063 186.055 102.754 0 186.055-83.305 186.055-186.055Zm0 0"/><path style="stroke:none;fill-rule:nonzero;fill:#ade0f7;fill-opacity:1" d="M229.809 195.008c-.664-5.106-3.149-8.992-5.547-8.68-2.403.313-3.813 4.703-3.149 9.809.664 5.105 3.149 8.988 5.547 8.675 2.403-.312 3.813-4.703 3.149-9.804Zm0 0"/><path style="stroke:none;fill-rule:nonzero;fill:#77ccf2;fill-opacity:1" d="M230.094 203.793s34.168 6.234 64.781-4.418c11.48-3.996 30.031-14.441 25.492-38.773-3.539-18.954-27.832-50.258-60.695-17.036-9.844 9.95-10.285 29.563-16.055 34-4.25 3.266-12.543 7.207-17.258 7.676 0-.004 5.805 9.895 3.735 18.551Zm0 0"/><path style="stroke:none;fill-rule:nonzero;fill:#ade0f7;fill-opacity:1" d="M316.996 159.555c-3.152-16.903-24.824-44.82-54.129-15.192-8.785 8.875 58.176 36.895 54.13 15.192Zm0 0"/><path style="stroke:none;fill-rule:nonzero;fill:#b7967f;fill-opacity:1" d="M234.48 237.738s-.285 1.137-1.597 1.45c-1.313.312-2.137-.829-2.137-.829l-5.137-30.78 3.73-.626Zm0 0"/><path style="stroke:none;fill-rule:nonzero;fill:#b7967f;fill-opacity:1" d="M223.352 182.547c-3.125.52-4.692 6.738-3.497 13.887 1.192 7.148 4.692 12.52 7.817 12 3.125-.524 4.687-6.739 3.496-13.887-1.195-7.149-4.695-12.524-7.816-12Zm3.535 21.18c-1.989.332-4.219-3.086-4.977-7.637-.758-4.55.235-8.508 2.227-8.84 1.988-.332 4.215 3.09 4.976 7.637.758 4.55-.238 8.508-2.226 8.84Zm0 0"/><path style="stroke:none;fill-rule:nonzero;fill:#dfa17c;fill-opacity:1" d="M108.598 249.098c5.523-5.176 8.93-24.309 8.93-24.309-11.907-16.367-26.848-30.348-27.325-61.465-.476-31.113 34.723-44.644 34.723-44.644 30.258-12.899 54.605 10.375 54.605 10.375 3.82 4.84 7.25 13.207 9.68 20.207.758 2.18.59 4.972.922 5.8.71 1.778 2.793 6.235 2.793 6.235 4.465 8.433 12.898 12.402 12.898 12.402 8.93 3.969 2.219 10.953 2.219 10.953-.89 1.543-.594 3.262-.434 3.559l-.351 16.574c-1.293.8-1.438 4.13-1.438 4.13.993 16.866-16.863 16.866-16.863 16.866-22.664-2.047-27.984 7.043-30.754 9.922-10.058 10.45-13.89 38.692-13.89 38.692s-12.805-3.27-20.68-8.895-15.035-16.402-15.035-16.402Zm0 0"/><path style="stroke:none;fill-rule:nonzero;fill:#6e4832;fill-opacity:1" d="M186.523 152.703s-10.597-1.984-15.332-.644c-1.898.539-5.418 5.488-5.418 5.488s4.895-1.922 6.735-2.465c1.836-.543 14.316-.742 14.316-.742s1.625-.985-.3-1.637Zm0 0"/><path style="stroke:none;fill-rule:nonzero;fill:#644b44;fill-opacity:1" d="M187.883 160.25s-.664 2.86-3.125 4.75c-2.649 2.035-7.274 2.984-12.281-.938 0 0 6.906-.562 10.28-1.312 3.376-.75 5.126-2.5 5.126-2.5Zm0 0"/><path style="stroke:none;fill-rule:nonzero;fill:#6e4832;fill-opacity:1" d="M189.836 143.676c-4.848.742-23.348-2.715-36.914 5.191-6.781 3.953-13.34 9.504-18.36 17.344-7.37 11.523-11.117 25.77-11.304 39.664-.188 13.875-6.375 20.438-6.375 20.438s-56.625-57.188-13.633-96.16c13.82-12.524 58.355-34.633 86.266 8.156.554.847 1.609 5.168.32 5.367Zm0 0"/><path style="stroke:none;fill-rule:nonzero;fill:#dfa17c;fill-opacity:1" d="M204.305 194.203s2.48-5.906 3.703-5.738c1.226.172 3.137-.399 3.652 3.722.18 1.434-1.527 3.004-1.691 4.329-.18 1.422 2.136 3.203.71 6.847 0 0-1.245 2.828-6.019.684 0 0-1.437-7.52-.355-9.844ZM133.813 182.125c-2.125-6.059-7.754-9.598-12.57-7.906-4.817 1.687-7 7.969-4.876 14.027 2.121 6.055 7.75 9.594 12.567 7.906 4.82-1.691 7.004-7.972 4.879-14.027Zm0 0"/><path style="stroke:none;fill-rule:nonzero;fill:#6e4832;fill-opacity:1" d="M110.844 125.41s-28.52-37.426-58.594-7.355c-8.54 8.539-16.367 19.215-12.098 41.039 0 0 8.067 27.043-4.27 35.582 0 0 24.567 3.05 26.095-15.656.949-11.622 10.199-50.051 35.343-37.715Zm0 0"/><path style="stroke:none;fill-rule:nonzero;fill:#ea4949;fill-opacity:1" d="M100.383 245.25c-15.613-.602-44.688 43.027-55.656 60.45 21.441 27.73 50.53 49.238 84.12 61.359 7.348-12.993 20.5-39.114 26.286-68.559 8.25-42-54.75-53.25-54.75-53.25Zm0 0"/><path style="stroke:none;fill-rule:nonzero;fill:#c92727;fill-opacity:1" d="M212.715 276.703s23.09 1.746 21.879 9.664c0 0-18.961 11.543-22.684-8.187Zm0 0"/><path style="stroke:none;fill-rule:nonzero;fill:#dfa17c;fill-opacity:1" d="M230.938 291.766s9.39-23.625 14.062-28.918c0 0 7.488-2.047 6.328-5.403-1.148-3.32-2.05-3.074-5.64-2.605 0 0 6.148-1.375 5.496-4.82-.387-2.028-.317-4.72-7.922-3.282 0 0 7.55-.324 6.812-4.804-.664-3.977-2.152-4.426-5.754-3.746 0 0 4.188-.633 3.563-3.93-.903-4.774-4.266-4.426-8.645-3.508-10.203 2.14-16.648 1.945-20.187 6.55 0 0-6.254 11.895-4.051 33.536 0 0 .719 4.902-2.941 14.422-3.66 9.515 13.699 14.105 18.879 6.508Zm0 0"/><path style="stroke:none;fill-rule:nonzero;fill:#c48769;fill-opacity:1" d="m234.125 239.805 10.957-1.758-10.82 2.203ZM235.633 247.762l10.14-1.34-10.003 1.789ZM237.207 256.078l9.098-1.3-8.961 1.745Zm0 0"/><path style="stroke:none;fill-rule:nonzero;fill:#ea4949;fill-opacity:1" d="m211.91 278.18-20.777 74.32-37.875-74.25-22.125 55.125 39.277 43.43c7.086.816 14.29 1.254 21.594 1.254 7.64 0 15.176-.473 22.578-1.368l20.012-90.324c-14.625 5-22.684-8.187-22.684-8.187Zm0 0"/><path style="stroke:none;fill-rule:nonzero;fill:#77ccf2;fill-opacity:1" d="M306.602 82.313c0 12.374-10.032 22.406-22.407 22.406S261.79 94.688 261.79 82.313c0-12.376 10.031-22.407 22.406-22.407 12.375 0 22.407 10.032 22.407 22.407Zm0 0"/><path style="stroke:none;fill-rule:nonzero;fill:#ade0f7;fill-opacity:1" d="M300.508 92.848c-5.82 9.007-38.442-12.059-32.625-21.07 5.82-9.008 17.836-11.594 26.844-5.778 9.011 5.82 11.597 17.84 5.78 26.848Zm0 0"/><path style="stroke:none;fill-rule:nonzero;fill:#77ccf2;fill-opacity:1" d="M232.512 59.813c0 8.253-6.688 14.945-14.942 14.945-8.254 0-14.945-6.692-14.945-14.945 0-8.254 6.691-14.942 14.945-14.942 8.254 0 14.942 6.688 14.942 14.941Zm0 0"/><path style="stroke:none;fill-rule:nonzero;fill:#ade0f7;fill-opacity:1" d="M228.45 66.84c-3.88 6.008-25.641-8.043-21.759-14.05 3.88-6.013 11.895-7.735 17.903-3.856 6.011 3.879 7.734 11.898 3.855 17.906Zm0 0"/></svg>