<svg xmlns="http://www.w3.org/2000/svg" width="px" height="px" viewBox="0 0 384 384"><path style="stroke:none;fill-rule:nonzero;fill:#5b4f3f;fill-opacity:1" d="M378.059 192.004c0-102.766-83.301-186.059-186.055-186.059C89.242 5.945 5.94 89.238 5.94 192.004c0 102.754 83.301 186.055 186.063 186.055 102.754 0 186.055-83.301 186.055-186.055Zm0 0"/><path style="stroke:none;fill-rule:nonzero;fill:#99937f;fill-opacity:1" d="M177.332 37.957h29.336s3.008 45.887-13.54 69.207c0 .004-19.558-45.887-15.796-69.207Zm0 0"/><path style="stroke:none;fill-rule:nonzero;fill:#e2decf;fill-opacity:1" d="M179.586 131.238s9.781 182.051 8.277 213.645c0 0 40.621 3.762 55.668-2.258 0 0-15.797-210.133-12.789-220.664l4.512 18.055s16.55 61.683 20.062 67.203l28.082-8.024-18.554-91.777s-9.528-40.121-18.055-45.137c0 0-15.047-11.035-29.086-8.527-14.043 2.508-38.117 77.484-38.117 77.484Zm0 0"/><path style="stroke:none;fill-rule:nonzero;fill:#c9c3ad;fill-opacity:1" d="M206.668 37.957s-9.777 51.906-27.078 93.281c0 0 36.86-23.32 42.125-74.472Zm0 0"/><path style="stroke:none;fill-rule:nonzero;fill:#ccc8b8;fill-opacity:1" d="M206.293 131.238s-9.781 182.051-8.273 213.645c0 0-40.625 3.762-55.668-2.258 0 0 13.539-211.387 10.53-221.918 0 0 1.255-69.46 15.298-66.953 14.039 2.508 38.113 77.484 38.113 77.484Zm0 0"/><path style="stroke:none;fill-rule:nonzero;fill:#e2decf;fill-opacity:1" d="M204.414 131.238s-9.781 182.051-8.277 213.645c0 0-40.621 3.762-55.668-2.258 0 0 15.797-210.133 12.789-220.664l-4.512 18.055s-16.55 61.683-20.062 67.203l-28.086-8.024 18.558-91.777s9.528-40.121 18.055-45.137c0 0 15.047-11.035 29.086-8.527 14.043 2.508 38.117 77.484 38.117 77.484Zm0 0"/><path style="stroke:none;fill-rule:nonzero;fill:#ccc6b4;fill-opacity:1" d="M177.332 37.957s11.473 52.094 27.645 93.094c0 0-37.426-23.133-42.692-74.285Zm0 0"/><path style="stroke:none;fill-rule:nonzero;fill:#eae8e4;fill-opacity:1" d="M150.625 199.32s10.344 1.88 18.242 3.387c0 0-2.539 35.16-10.719 40.246-6.957 4.324-10.91 1.879-10.91 1.879ZM233.563 199.32s-10.344 1.88-18.243 3.387c0 0 2.54 35.16 10.72 40.246 6.96 4.324 10.91 1.879 10.91 1.879Zm0 0"/><path style="stroke:none;fill-rule:nonzero;fill:#bfb89d;fill-opacity:1" d="m189.113 167.082 2.145-1.059.117 1.008Zm0 0"/><path style="stroke:none;fill-rule:nonzero;fill:#eae8e4;fill-opacity:1" d="m180.602 230.809 8.906 5.457s3.308-20.328 2.445-36.13c-.86-15.8 2.797-29.66 2.797-29.66s-1.438-.788-4.453-.863c-3.016-.07-4.453.29-4.453.29s-3.094 13.144-2.656 30.523c.437 17.383-2.586 30.383-2.586 30.383Zm0 0"/><path style="stroke:none;fill-rule:nonzero;fill:#eae8e4;fill-opacity:1" d="M232.406 174.953s-21.293 2.43-42.316 2.43c-21.016 0-38.531-2.266-38.531-2.266l.43-10.293s17.94 2.266 38.96 2.266c21.016 0 40.742-2.29 40.742-2.29Zm0 0"/><path style="stroke:none;fill-rule:nonzero;fill:#e5e1da;fill-opacity:1" d="M190.512 175.074c-20.684.11-38.836-1.808-38.836-1.808s-.723-1.368-.617-3.52c.109-2.156.894-3.125.894-3.125s25.094 2.742 39.422 2.742c14.328 0 40.293-2.691 40.293-2.691s1.035 1.183 1.035 3.77c0 2.585-.496 3.449-.496 3.449s-21.008 1.074-41.695 1.183Zm0 0"/><path style="stroke:none;fill-rule:nonzero;fill:#e5e1da;fill-opacity:1" d="m197.719 250.922-11.266 5.457s.547-24.707 4.543-45.824c3.996-21.118 0-44.532 0-44.532s1.816-.789 5.629-.863c3.816-.07 5.637.29 5.637.29s3.922 19.827-.176 45.394c-4.094 25.566-4.367 40.078-4.367 40.078Zm0 0"/><path style="stroke:none;fill-rule:nonzero;fill:#eae8e4;fill-opacity:1" d="m197.73 250.922-8.906 5.457s.434-24.707 3.59-45.824c3.16-21.118 0-44.532 0-44.532s1.438-.789 4.453-.863c3.016-.07 4.457.29 4.457.29s3.098 19.827-.14 45.394c-3.239 25.566-3.454 40.078-3.454 40.078Zm0 0"/></svg>