<svg xmlns="http://www.w3.org/2000/svg" width="px" height="px" viewBox="0 0 384 384"><path style="stroke:none;fill-rule:nonzero;fill:#337180;fill-opacity:1" d="M378.059 192.004c0-102.766-83.301-186.059-186.055-186.059C89.242 5.945 5.94 89.238 5.94 192.004c0 102.754 83.301 186.055 186.063 186.055 102.754 0 186.055-83.301 186.055-186.055Zm0 0"/><path style="stroke:none;fill-rule:nonzero;fill:#ccbf7f;fill-opacity:1" d="M297.957 200.246c2.32-29.797-7.89-60.39-30.684-83.184-41.375-41.374-108.457-41.374-149.832 0-23.453 23.454-33.593 55.16-30.46 85.766 2.39 23.39 12.535 46.145 30.46 64.067 41.375 41.378 108.457 41.378 149.832 0 18.586-18.582 28.793-42.352 30.684-66.649Zm0 0"/><path style="stroke:none;fill-rule:nonzero;fill:#eae0a7;fill-opacity:1" d="M191.781 261.621c47.047 0 87.582-25.14 106.176-61.375 2.32-29.797-7.89-60.39-30.684-83.184-41.375-41.37-108.457-41.374-149.832 0-23.453 23.454-33.593 55.16-30.46 85.766 19.164 34.844 58.882 58.797 104.8 58.793Zm0 0"/><path style="stroke:none;fill-rule:nonzero;fill:#edc92f;fill-opacity:1" d="M277.059 222.59c.12-.11.214-.2.257-.238l-.613-.68c-.055.105-.09.226-.144.332Zm0 0"/><path style="stroke:none;fill-rule:nonzero;fill:#3a3a39;fill-opacity:1" d="m232.074 290.23.024.028 1.254-.535-.024-.028c-.422.172-.836.364-1.254.535Zm0 0"/><path style="stroke:none;fill-rule:nonzero;fill:#ea4949;fill-opacity:1" d="m277.059 222.59 11.644 13.676s17.453-32.766 5.586-72.66l-14.039 14.039c-7.965-7.915-28.527-21.891-32.527-24.579-2.442-21.18-12.684-32.379-15.024-34.683l13.793-14.945-.39.425 9.558 3.04s-8.11-6.02-17.094-10.247l6.536 6.637.566-.613-13.86 15.023c-15.792-8.805-37.992-5.14-42.015-4.375-10.379-10.531-22.523-14.004-26.773-14.945l10.914-11s-28.442 2.758-54.504 27.68l3.043 3.07c-2.696 2.844-14.293 16.394-14.098 38.617-14.14 14.445-17.031 32.059-17.469 35.43l-4.531-.243-.059 1.118 4.586.25c1.438 12.886 12.668 28.222 15.059 31.36-.055 2.608-.125 21.937 8.98 37.456l.97-.566c-8.68-14.79-8.88-33.133-8.833-36.575l24.395-9.968c5.336 4.023 31.734 23.765 39.59 26.304l8.503 33.84c14.27 6.332 42.282 2.09 42.282 2.09 14.09-14.09 19.504-29.183 20.644-32.766 10.977-.964 31.91-19.507 34.567-21.89ZM123.367 119.03s18.781-16.242 37.934-19.886l-.008.043c.156.023 15.137 2.199 27.547 14.761-8.664 13.52-12.508 32.043-13.285 36.176-7.621 1.137-35.75 16.805-40.797 19.645l-25.262-13.13c-.16-21.734 11.156-34.956 13.766-37.714Zm11.727 51.836c4.293-2.41 33.77-18.851 40.824-19.656 4.691 2.351 33.879 20.414 37.644 22.75l-1.945 46.582-40.168 19.719c-7.465-2.364-33.687-21.926-39.191-26.063-1.524-14.535 2.082-38.566 2.836-43.332Zm77.648 49.61 1.942-46.48c5.296-2.017 28.289-17.212 32.453-19.974 4.093 2.758 25.277 17.157 32.707 24.813.57 4.426 3.398 29.309-3.137 42.844l-.14-.16c-.235.21-23.153 20.94-34.235 21.851h-.004Zm0 0"/><path style="stroke:none;fill-rule:nonzero;fill:#db3737;fill-opacity:1" d="M239.277 252.477c-14.52 5.847-30.574 9.144-47.496 9.144-5.386 0-10.676-.36-15.863-.996l3.543 14.105c-3.488 1.727-19.691 9.633-24.652 10.336-11.805-3.402-34.504-20.238-38.93-23.574-6.906-11.805-8.418-25.82-8.727-32.75-.382-.367-.785-.719-1.164-1.09.196 6.434 1.477 21.172 8.547 33.711l-1.316 1.028a106.332 106.332 0 0 0 4.222 4.504c11.2 11.199 24.29 19.34 38.235 24.476l-.348-5.254c6.004-1.137 23.156-9.64 25.129-10.629 13.168 5.274 36.473 2.434 40.668 1.86l10.95 12.882c.417-.175.831-.363 1.253-.539l-11.129-12.82c8.7-8.8 14.035-17.937 17.078-24.394ZM288.645 236.195a106.065 106.065 0 0 0 9.312-35.949c-4.754 9.262-10.96 17.79-18.324 25.367Zm0 0"/></svg>