<svg xmlns="http://www.w3.org/2000/svg" width="px" height="px" viewBox="0 0 384 384"><path style="stroke:none;fill-rule:nonzero;fill:#d8dbba;fill-opacity:1" d="M378.059 192.004c0-102.766-83.301-186.063-186.055-186.063C89.242 5.941 5.94 89.238 5.94 192.004c0 102.75 83.301 186.055 186.063 186.055 102.754 0 186.055-83.305 186.055-186.055Zm0 0"/><path style="stroke:none;fill-rule:nonzero;fill:#4094d3;fill-opacity:1" d="M140.504 238.852h46.262v95.687h-46.262Zm0 0"/><path style="stroke:none;fill-rule:nonzero;fill:#3786b7;fill-opacity:1" d="M140.504 257.656h46.262v4.672h-46.262ZM140.504 317.695h46.262v16.844h-46.262Zm0 0"/><path style="stroke:none;fill-rule:nonzero;fill:#4094d3;fill-opacity:1" d="M197.113 238.852h46.262v95.687h-46.262Zm0 0"/><path style="stroke:none;fill-rule:nonzero;fill:#4ba6dd;fill-opacity:1" d="M197.113 238.852h46.262v23.48h-46.262ZM140.695 238.852h46.262v23.48h-46.262Zm0 0"/><path style="stroke:none;fill-rule:nonzero;fill:#3786b7;fill-opacity:1" d="M140.504 257.656h46.262v4.672h-46.262ZM197.113 257.656h46.262v4.672h-46.262ZM197.113 317.695h46.262v16.844h-46.262Zm0 0"/><path style="stroke:none;fill-rule:nonzero;fill:#5cb7e5;fill-opacity:1" d="M186.766 238.852h10.226v23.48h-10.226ZM140.262 227.27h103.234v11.582H140.262Zm0 0"/><path style="stroke:none;fill-rule:nonzero;fill:#ca261d;fill-opacity:1" d="M140.262 227.191h103.234s-1.476-96.367-11.023-96.367h-81.184c-7.96 0-11.027 96.367-11.027 96.367Zm0 0"/><path style="stroke:none;fill-rule:nonzero;fill:#e24844;fill-opacity:1" d="M150.246 131.719h83.266s-4.735-9.61-11.766-9.61h-59.738c-5.856 0-11.762 9.61-11.762 9.61Zm0 0"/><path style="stroke:none;fill-rule:nonzero;fill:#ecbf30;fill-opacity:1" d="M250.313 212.066h18.261v13.149h-18.262Zm0 0"/><path style="stroke:none;fill-rule:nonzero;fill:#ba1713;fill-opacity:1" d="M236.438 138.293s9.644-3.652 13.66.73c4.011 4.383 19.937 44.555 21.398 53.32 1.461 8.766-.73 21.915-.73 24.106l-24.102-.73-2.191-18.262-4.383-16.8Zm0 0"/><path style="stroke:none;fill-rule:nonzero;fill:#ecbf30;fill-opacity:1" d="M274.176 235.441c0-8.07-6.543-14.609-14.61-14.609-8.07 0-14.609 6.54-14.609 14.61 0 4.956 2.473 9.328 6.246 11.968 0 0 3.715-5.683 3.184-6.16a7.752 7.752 0 0 1-2.614-5.809 7.791 7.791 0 1 1 15.582 0c0 1.97-.73 3.77-1.937 5.141-.445.508 3.344 6.203 3.344 6.203 3.3-2.68 5.414-6.762 5.414-11.344ZM115.426 212.066h18.261v13.149h-18.261Zm0 0"/><path style="stroke:none;fill-rule:nonzero;fill:#ba1713;fill-opacity:1" d="M147.563 138.293s-9.645-3.652-13.66.73c-4.012 4.383-19.938 44.555-21.4 53.32-1.46 8.766.731 21.915.731 24.106l24.102-.73 2.191-18.262 4.383-16.8Zm0 0"/><path style="stroke:none;fill-rule:nonzero;fill:#ecbf30;fill-opacity:1" d="M109.824 235.441c0-8.07 6.543-14.609 14.61-14.609 8.07 0 14.609 6.54 14.609 14.61 0 4.956-2.473 9.328-6.246 11.968 0 0-3.715-5.683-3.184-6.16a7.752 7.752 0 0 0 2.614-5.809 7.791 7.791 0 1 0-15.582 0c0 1.97.73 3.77 1.937 5.141.445.508-3.344 6.203-3.344 6.203-3.3-2.68-5.414-6.762-5.414-11.344Zm0 0"/><path style="stroke:none;fill-rule:nonzero;fill:#e5b428;fill-opacity:1" d="M214.277 121.492a4.38 4.38 0 0 1-4.379 4.383h-35.793a4.381 4.381 0 0 1-4.382-4.383 4.381 4.381 0 0 1 4.382-4.383h35.793a4.38 4.38 0 0 1 4.38 4.383ZM204.293 62.8a5.61 5.61 0 0 1-5.61 5.61h-13.367a5.61 5.61 0 0 1-5.609-5.61V50.126a5.61 5.61 0 0 1 5.61-5.61h13.367a5.61 5.61 0 0 1 5.609 5.61Zm0 0"/><path style="stroke:none;fill-rule:nonzero;fill:#ecbf30;fill-opacity:1" d="M192.23 68.41h-6.914a5.61 5.61 0 0 1-5.609-5.61V50.126a5.61 5.61 0 0 1 5.61-5.61h6.913Zm0 0"/><path style="stroke:none;fill-rule:nonzero;fill:#ecbf30;fill-opacity:1" d="M227.523 99.477c0 10.949-8.878 19.824-19.828 19.824h-31.39c-10.95 0-19.828-8.875-19.828-19.824V75.023c0-10.949 8.878-19.824 19.828-19.824h31.39c10.95 0 19.828 8.875 19.828 19.824Zm0 0"/><path style="stroke:none;fill-rule:nonzero;fill:#f7ca4d;fill-opacity:1" d="M191.957 119.3h-15.652c-10.95 0-19.828-8.874-19.828-19.827v-24.45c0-10.949 8.878-19.824 19.828-19.824h15.652Zm0 0"/><path style="stroke:none;fill-rule:nonzero;fill:#353535;fill-opacity:1" d="M185.535 84.563a4.224 4.224 0 1 1-8.45 0 4.223 4.223 0 0 1 4.224-4.223 4.226 4.226 0 0 1 4.226 4.222ZM206.914 84.563a4.224 4.224 0 1 1-8.45 0 4.226 4.226 0 0 1 4.227-4.223 4.223 4.223 0 0 1 4.223 4.222ZM191.445 106.234c-7.238 0-13.062-5.816-13.308-6.062a1.227 1.227 0 0 1 1.746-1.727c.054.055 5.363 5.332 11.562 5.332 6.278 0 12.453-5.336 12.516-5.39a1.225 1.225 0 1 1 1.613 1.847c-.281.246-6.941 6-14.129 6Zm0 0"/></svg>