<svg xmlns="http://www.w3.org/2000/svg" width="px" height="px" viewBox="0 0 384 384"><path style="stroke:none;fill-rule:nonzero;fill:#d8dbba;fill-opacity:1" d="M378.059 192.004c0-102.766-83.301-186.059-186.055-186.059C89.242 5.945 5.94 89.238 5.94 192.004c0 102.754 83.301 186.055 186.063 186.055 102.754 0 186.055-83.301 186.055-186.055Zm0 0"/><path style="stroke:none;fill-rule:nonzero;fill:#c10000;fill-opacity:1" d="M127.102 128.168c3.496-23.04 18.21-27.277 35.175-24.7 16.97 2.575 29.762 10.989 26.262 34.032-2.46 16.215-18.21 27.273-35.176 24.7-16.968-2.579-28.722-17.813-26.261-34.032Zm0 0"/><path style="stroke:none;fill-rule:nonzero;fill:#ffc5c5;fill-opacity:1" d="M130.45 136.41c-3.305-13.719 3.28-27.07 14.71-29.82 11.426-2.754-13.406 35.254-14.71 29.82Zm0 0"/><path style="stroke:none;fill-rule:nonzero;fill:#900;fill-opacity:1" d="M154 111.148c-.254 1.66 2.652 3.48 6.488 4.063 3.84.582 7.153-.293 7.407-1.957.25-1.66-2.653-3.48-6.489-4.063-3.84-.586-7.152.293-7.406 1.957Zm0 0"/><path style="stroke:none;fill-rule:nonzero;fill:#418912;fill-opacity:1" d="M157.934 114.594s12.015-59.688 52.535-62.739l1.281 1.141s-38.414 1.781-50.559 62.207Zm0 0"/><path style="stroke:none;fill-rule:nonzero;fill:#756f6a;fill-opacity:1" d="M34.242 241.586h315.516c0-9.25-70.633-17.274-157.762-17.274-87.121 0-157.754 8.024-157.754 17.274Zm0 0"/><path style="stroke:none;fill-rule:nonzero;fill:#754f2d;fill-opacity:1" d="M311.824 236.324c0 5.871-4.758 10.63-10.625 10.63H77.184c-5.871 0-10.63-4.759-10.63-10.63v-84.117c0-5.867 4.758-10.621 10.63-10.621h224.015c5.867 0 10.625 4.754 10.625 10.621Zm0 0"/><path style="stroke:none;fill-rule:nonzero;fill:#4c311b;fill-opacity:1" d="M311.824 152.207c0-5.867-4.758-10.621-10.625-10.621H77.184c-5.871 0-10.63 4.754-10.63 10.621v25.68h9.212v3.98c0 1.696 1.57 3.074 3.511 3.074 1.649 0 3.02-.996 3.399-2.34v-4.203c0-2.433 2.254-4.406 5.031-4.406 2.781 0 5.031 1.973 5.031 4.406v12.266c.332 2.121 2.387 3.758 4.899 3.758 2.625 0 4.75-1.79 4.933-4.047v-11.86c0-.105.028-.202.035-.304v-.324h.04c.347-2.133 2.425-3.778 4.957-3.778 2.53 0 4.609 1.645 4.957 3.778h.004v.031c.03.2.066.394.066.598v22.18c.43 2.644 3.016 4.683 6.156 4.683 3.434 0 6.219-2.441 6.219-5.453v-22.04h.086c.32-1.421 1.75-2.495 3.465-2.495 1.722 0 3.148 1.074 3.468 2.496h.094v21.324c0 3.187 2.95 5.773 6.59 5.773 3.64 0 6.59-2.586 6.59-5.773v-21.324h.027c.035-1.125 1.082-2.032 2.375-2.032 1.305 0 2.36.922 2.375 2.06l.07.038v11.14c0 3 2.778 5.434 6.204 5.434 3.066 0 5.605-1.949 6.109-4.504v-8.046c0-1.77 1.637-3.207 3.66-3.207 2.024 0 3.664 1.437 3.664 3.207v17.418c0 .144-.027.28-.05.421v4.114c0 2.664 2.464 4.824 5.503 4.824 2.657 0 4.868-1.649 5.387-3.836v-11.344c0-3.41 3.156-6.176 7.055-6.176 3.894 0 7.05 2.766 7.05 6.176v21.742c.102 3.711 3.563 6.696 7.825 6.696 4.328 0 7.836-3.075 7.836-6.864v-5.66c-.004-.058-.02-.11-.02-.164v-13.101c0-1.332 1.235-2.414 2.758-2.414 1.52 0 2.754 1.082 2.754 2.414v3.078l.055-.024v5.368c0 2.886 2.671 5.23 5.968 5.23s5.97-2.344 5.97-5.23v-10.23l.019-.009v-2.777c0-1.434 1.328-2.594 2.964-2.594 1.637 0 2.961 1.16 2.961 2.594v9.02c.055 2.085 1.993 3.765 4.387 3.765 2.426 0 4.395-1.726 4.395-3.851v-12.145l.058-.023v-4.125c0-2.133 1.977-3.864 4.41-3.864 2.434 0 4.407 1.73 4.407 3.864v2.8c.125 1.043 1.125 1.864 2.351 1.864 1.25 0 2.258-.848 2.356-1.918v-7.38c0-2.386 2.21-4.32 4.933-4.32 2.438 0 4.45 1.551 4.848 3.586l.059-.023v.523c.007.078.027.153.027.235v7.402c.137 1.387 1.45 2.477 3.066 2.477 1.707 0 3.09-1.215 3.09-2.707v-8.922h.063v-.446c0-1.171 1.09-2.125 2.43-2.125s2.425.954 2.425 2.125v11.543c0 .078-.016.157-.027.23v2.161c0 1.676 1.55 3.035 3.469 3.035 1.914 0 3.468-1.36 3.468-3.035v-13.488h.012v-1.059c0-.832.773-1.512 1.727-1.512.953 0 1.726.676 1.726 1.512v1.059h.05v21.758c0 2.39 2.212 4.328 4.938 4.328 2.551 0 4.625-1.703 4.887-3.88v-23.027c0-3.484 3.227-6.316 7.211-6.316 3.98 0 7.211 2.832 7.211 6.316v.82h.031Zm0 0"/><path style="stroke:none;fill-rule:nonzero;fill:#7a7065;fill-opacity:1" d="M86.848 260.82c0 9.43 210.304 9.43 210.304 0 0-9.422-47.078-17.062-105.152-17.062s-105.152 7.64-105.152 17.062Zm0 0"/><path style="stroke:none;fill-rule:nonzero;fill:#8e8376;fill-opacity:1" d="M349.758 241.195H34.242c0 9.254 70.633 17.274 157.762 17.274 87.121 0 157.754-8.02 157.754-17.274Zm0 0"/><path style="stroke:none;fill-rule:nonzero;fill:#c10000;fill-opacity:1" d="M208.695 166.184c-14.437-18.297-7.476-31.938 5.996-42.567 13.477-10.629 28.36-14.219 42.793 4.074 10.16 12.88 7.473 31.938-6 42.567-13.472 10.629-32.629 8.8-42.789-4.074Zm0 0"/><path style="stroke:none;fill-rule:nonzero;fill:#ffc5c5;fill-opacity:1" d="M257.387 131.766c7.226 12.12 4.902 26.824-5.192 32.843-10.097 6.02 2.328-37.644 5.192-32.843Zm0 0"/><path style="stroke:none;fill-rule:nonzero;fill:#900;fill-opacity:1" d="M214.645 134.902c1.039 1.32 4.355.446 7.402-1.96 3.047-2.403 4.672-5.422 3.629-6.743-1.043-1.32-4.36-.445-7.403 1.961-3.046 2.403-4.671 5.422-3.628 6.742Zm0 0"/><path style="stroke:none;fill-rule:nonzero;fill:#418912;fill-opacity:1" d="M219.848 134.395s-33.485-41.997-11.325-81.2l3.227-.199s-22.59 33.34 10.77 79.434Zm0 0"/></svg>