<svg xmlns="http://www.w3.org/2000/svg" width="px" height="px" viewBox="0 0 384 384"><path style="stroke:none;fill-rule:nonzero;fill:#ffb357;fill-opacity:1" d="M378.059 192.004c0-102.766-83.301-186.059-186.055-186.059C89.242 5.945 5.94 89.238 5.94 192.004c0 102.754 83.301 186.055 186.063 186.055 102.754 0 186.055-83.301 186.055-186.055Zm0 0"/><path style="stroke:none;fill-rule:nonzero;fill:#3a3a3a;fill-opacity:1" d="M296.023 259.367s-10.644 16.164 8.336 54.637l-8.09 3.082s-14.074-30.461-13.574-53.133Zm0 0"/><path style="stroke:none;fill-rule:nonzero;fill:#4c4c4c;fill-opacity:1" d="M273.121 160.836c-.226 3.984-4.785 6.969-10.187 6.664L183.8 157.375c-5.403-.305-9.598-3.777-9.371-7.762l.863-15.32c.223-3.984 4.785-6.965 10.184-6.66l79.546 2.77c5.403.304 9.598 3.78 9.375 7.765Zm0 0"/><path style="stroke:none;fill-rule:nonzero;fill:#4c4c4c;fill-opacity:1" d="M241.215 133.027s44.863-33.078 96.285 3.25c4.191 2.961 7.023 30.102-3.93 40.653 0 0-18.96 7.652-37.586 9.328 0 0-39.925-7.156-56.843-26.098Zm0 0"/><path style="stroke:none;fill-rule:nonzero;fill:#5e5e5e;fill-opacity:1" d="M276.3 131.21s27.25-11.75 47.255 5.75Zm0 0"/><path style="stroke:none;fill-rule:nonzero;fill:#4c4c4c;fill-opacity:1" d="M255.61 172.535s12.84 4.266 14.8 22.637l3.899 66.168s10.515 6.86 26.093 1.2l-1.261-79.099Zm0 0"/><path style="stroke:none;fill-rule:nonzero;fill:#515151;fill-opacity:1" d="M298.45 211.457a4.89 4.89 0 0 1-4.727 5.05l-16.297.536a4.89 4.89 0 0 1-5.051-4.727l-.414-12.629a4.892 4.892 0 0 1 4.726-5.05l16.297-.535a4.886 4.886 0 0 1 5.047 4.726Zm0 0"/><path style="stroke:none;fill-rule:nonzero;fill:#3f3f3f;fill-opacity:1" d="M293.504 202.266c.02.648-1.375 1.218-3.113 1.273l-10.496.348c-1.739.054-3.168-.422-3.188-1.067l-.102-3.02c-.02-.644 1.372-1.214 3.11-1.273l10.5-.343c1.742-.059 3.168.418 3.187 1.062ZM294.016 211.008c.02.644-1.375 1.215-3.11 1.273l-10.5.344c-1.738.059-3.168-.422-3.187-1.066l-.102-3.02c-.02-.644 1.371-1.215 3.11-1.273l10.5-.344c1.742-.059 3.168.422 3.187 1.066Zm0 0"/><path style="stroke:none;fill-rule:nonzero;fill:#e4f2f4;fill-opacity:1" d="M91.156 117.89c-2.332-2.245-3.195-4.757-2.633-7.667.782-4.043 2.668-6.993 5.297-8.293 2.25-1.118 5.114-1.102 8.52.039 4.41 1.476 5.676 4.793 5.394 7.402-.273 2.574-2.214 5.332-5.925 5.692-.946.093-1.598.847-1.465 1.687.136.84 1.004 1.445 1.953 1.352 4.82-.47 8.387-3.817 8.875-8.34.508-4.73-2.516-8.907-7.703-10.649-4.406-1.476-8.242-1.43-11.403.137-3.57 1.766-5.968 5.348-6.941 10.355-.75 3.868.438 7.34 3.531 10.317 5.692 5.488 17.715 8.789 31.926 10.703 27.035 3.64 36.64 2.316 51.2 1.508a99.861 99.861 0 0 0 1.09-3.149c-20.02 1.133-66.083 3.973-81.716-11.093ZM93.953 147.242c-2.422 1.82-3.492 4.172-3.191 6.985.441 4.085 2.125 7.183 4.879 8.964 1.23.797 2.629 1.301 4.171 1.512 1.52.203 3.188.121 4.985-.246 4.316-.887 7.047-3.969 6.953-7.848-.09-3.714-2.762-6.797-6.645-7.664-.937-.207-1.851.29-2.05 1.106-.207.82.379 1.652 1.312 1.86 2.656.593 3.89 2.769 3.938 4.66.047 1.925-1.082 4.226-4.39 4.906-2.603.53-4.728.285-6.302-.735-1.867-1.207-3.082-3.586-3.414-6.707-.199-1.805.473-3.258 2.035-4.437 10.961-8.27 41.567-3.61 71.97 2.28.589-.913 1.187-1.827 1.75-2.76-26.696-5.243-62.9-11.759-76-1.876Zm0 0"/><path style="stroke:none;fill-rule:nonzero;fill:#e4f2f4;fill-opacity:1" d="M53.719 119.824c-1.766-2.035-2.38-4.293-1.875-6.886.922-4.766 3.156-8.243 6.277-9.79 2.688-1.328 6.086-1.32 10.121.032 5.262 1.765 6.778 5.73 6.445 8.851-.335 3.078-2.66 6.383-7.117 6.817-.945.09-1.601.843-1.465 1.683.137.84 1.008 1.446 1.95 1.356 5.468-.535 9.511-4.336 10.066-9.465.578-5.371-2.855-10.121-8.754-12.098-5.031-1.687-9.406-1.64-13 .14-4.07 2.016-6.808 6.118-7.922 11.856-.668 3.446.196 6.578 2.563 9.317 5.976 6.91 21.304 10.64 40.336 13.203 8.601 1.16 17.96 2.082 27.554 2.95 27.774 2.51 34.211 2.538 49.942 3.85.496-.976 1-1.945 1.469-2.937-15.368-1.285-22.645-1.375-51.176-3.953-28.824-2.605-57.617-5.906-65.414-14.926Zm0 0"/></svg>