<svg xmlns="http://www.w3.org/2000/svg" width="px" height="px" viewBox="0 0 384 384"><path style="stroke:none;fill-rule:nonzero;fill:#d8dbba;fill-opacity:1" d="M378.059 192.004c0-102.766-83.301-186.059-186.055-186.059C89.242 5.945 5.94 89.238 5.94 192.004c0 102.75 83.301 186.055 186.063 186.055 102.754 0 186.055-83.305 186.055-186.055Zm0 0"/><path style="stroke:none;fill-rule:nonzero;fill:#000;fill-opacity:1" d="m290.68 205.148 12.703-12.707c-61.453-61.117-160.89-61.453-222.766-1.015l12.703 12.703c54.871-53.43 142.91-53.094 197.36 1.02Zm0 0"/><path style="stroke:none;fill-rule:nonzero;fill:#000;fill-opacity:1" d="m320.32 175.504 12.703-12.703c-77.796-77.465-203.824-77.797-282.05-1.016l12.707 12.703c71.218-69.777 185.847-69.441 256.64 1.016ZM261.879 233.945l12.707-12.707c-45.578-45.242-119.176-45.578-165.172-1.015l12.719 12.722c38.992-37.554 101.176-37.23 139.746 1Zm0 0"/><path style="stroke:none;fill-rule:nonzero;fill:#000;fill-opacity:1" d="m233.082 262.746 12.703-12.707c-29.695-29.36-77.45-29.687-107.562-1.004l12.707 12.707c23.101-21.687 59.46-21.36 82.152 1.004ZM207.895 281.219c0 8.55-6.93 15.484-15.48 15.484-8.552 0-15.481-6.933-15.481-15.484s6.93-15.48 15.48-15.48 15.48 6.929 15.48 15.48Zm0 0"/></svg>