<svg xmlns="http://www.w3.org/2000/svg" width="px" height="px" viewBox="0 0 384 384"><path style="stroke:none;fill-rule:nonzero;fill:#4abc96;fill-opacity:1" d="M378.059 192.004c0-102.766-83.301-186.059-186.055-186.059C89.242 5.945 5.94 89.238 5.94 192.004c0 102.754 83.301 186.055 186.063 186.055 102.754 0 186.055-83.301 186.055-186.055Zm0 0"/><path style="stroke:none;fill-rule:nonzero;fill:#327477;fill-opacity:1" d="M286.715 94.48a5.318 5.318 0 0 0-5.317-5.32H102.605a5.318 5.318 0 0 0-5.316 5.32v209.422a5.321 5.321 0 0 0 5.316 5.325h178.793a5.321 5.321 0 0 0 5.317-5.325Zm0 0"/><path style="stroke:none;fill-rule:nonzero;fill:#3b7f89;fill-opacity:1" d="M286.715 80.098a5.32 5.32 0 0 0-5.317-5.32H112.68v197.699h168.718a5.323 5.323 0 0 0 5.317-5.32Zm0 0"/><path style="stroke:none;fill-rule:nonzero;fill:#4699a1;fill-opacity:1" d="M110.52 74.777h3.234v200.47h-3.234Zm0 0"/><path style="stroke:none;fill-rule:nonzero;fill:#2a646e;fill-opacity:1" d="M111.055 309.227h-8.45a5.324 5.324 0 0 1-5.316-5.325V80.098a5.32 5.32 0 0 1 5.316-5.32h8.45Zm0 0"/><path style="stroke:none;fill-rule:nonzero;fill:#e9e9ea;fill-opacity:1" d="M277.129 272.547H115.46c-5.512 0-9.977 4.473-9.977 9.984v6.555c0 5.512 4.465 9.98 9.977 9.98h151.687c5.512 0 9.98-4.468 9.98-9.98Zm0 0"/><path style="stroke:none;fill-rule:nonzero;fill:#dbb595;fill-opacity:1" d="M324.621 322.48 314.22 302.56c-1.996-18.188-2.75-29.043-8.73-47.922-6.079-19.184-20.923-49.047-20.923-49.047l-16.52 2.156-30.284 7.094-36.492 16.254 26.355 65.656s20.566 25.879 24.664 30.652l15.805 34.43c21.258-9.539 40.398-22.957 56.527-39.352Zm0 0"/><path style="stroke:none;fill-rule:nonzero;fill:#dbb595;fill-opacity:1" d="M217.492 243.617c-5.097 2.242-11.246-.547-13.746-6.238l-30.902-71.566c-2.266-5.16-.371-10.997 4.25-13.028 4.613-2.027 10.199.508 12.465 5.672l33.336 70.176c2.507 5.687-.32 12.746-5.403 14.984ZM239.203 234.527c-5.324 2.246-12.058.153-14.476-5.578l-34.622-86.043c-2.19-5.183-.058-11.058 4.774-13.094 4.82-2.039 10.516.524 12.707 5.72l37.773 84.269c2.418 5.726-.836 12.476-6.156 14.726ZM266.945 210.422c2.34 5.758-1.226 12.55-6.375 14.652-5.14 2.098-11.855-.508-14.191-6.27l-28.23-71.183c-2.344-5.75-.07-12.117 5.074-14.215 5.148-2.097 11.218.867 13.562 6.617ZM282.516 218.328c-4.868 1.899-11.73-.75-13.993-6.527l-14.07-41.676c-1.965-5.02-.129-10.43 4.094-12.086 4.226-1.648 9.246 1.082 11.207 6.106l14.394 40.628c2.266 5.79 3.239 11.653-1.632 13.555ZM232.71 300.094s-19.663-12.254-29.663-18.028c-5.094-2.964-11.484-14.312-19.332-24.406-7.531-9.7-16.961-16.613-15.985-20.48 2.7-10.614 17.77-3.496 19.489-2.543 14.578 8.156 28.207 25.847 28.207 25.847l24.578 6.746Zm0 0"/><path style="stroke:none;fill-rule:nonzero;fill:#e8c7af;fill-opacity:1" d="M178.75 251.863s-1.273-14.129-11.66-16.41c0 0-4.27 2.984 11.66 16.41ZM255.734 167.328c1.57 4.496 4.547 4.91 7.664 3.82 3.114-1.09 5.184-3.27 3.61-7.761-.11-.328-.508-1.797-.653-2.125-1.843-4.219-4.882-5.266-7.773-4.258-2.973 1.039-4.64 4.07-3.32 8.547.066.219.402 1.574.472 1.777ZM220.234 145.063c2.016 5.253 5.637 5.601 9.391 4.164 3.746-1.442 6.207-4.125 4.191-9.38-.144-.374-.66-2.1-.847-2.48-2.336-4.918-6.051-6.015-9.535-4.68-3.579 1.375-5.532 5.047-3.813 10.293.082.254.524 1.844.613 2.083ZM191.953 141.926c2.399 5.195 6.05 5.324 9.7 3.64 3.648-1.687 5.91-4.554 3.507-9.75-.176-.375-.816-2.09-1.031-2.46-2.695-4.833-6.496-5.72-9.879-4.157-3.48 1.61-5.164 5.45-3.066 10.653.105.253.664 1.835.77 2.074ZM174.383 164.703c2.277 4.926 5.894 4.98 9.539 3.293 3.644-1.687 5.945-4.473 3.668-9.398-.164-.356-.766-1.98-.969-2.336-2.578-4.57-6.324-5.344-9.707-3.782-3.48 1.61-5.226 5.317-3.246 10.258.094.239.613 1.742.715 1.965Zm0 0"/><path style="stroke:none;fill-rule:nonzero;fill:#cea98d;fill-opacity:1" d="M221.422 273.398s-5.086-7.46-7.703-12.113c-2.59-4.601-8.117-19.402-8.117-19.402s6.082 13.117 9.472 18.676c3.367 5.523 7.512 11.484 7.512 11.484Zm0 0"/></svg>