<svg xmlns="http://www.w3.org/2000/svg" width="px" height="px" viewBox="0 0 384 384"><path style="stroke:none;fill-rule:nonzero;fill:#29c183;fill-opacity:1" d="M5.941 192.004C5.941 89.238 89.242 5.94 191.996 5.94c102.762 0 186.063 83.297 186.063 186.063 0 102.754-83.301 186.059-186.063 186.059-102.754 0-186.055-83.305-186.055-186.06Zm0 0"/><path style="stroke:none;fill-rule:nonzero;fill:#348891;fill-opacity:1" d="m312.383 280.648-53.988-10.945-102.141 32.828-84.637-21.883V92.418l81.715 21.883 105.063-32.832 53.988 10.949Zm0 0"/><path style="stroke:none;fill-rule:nonzero;fill:#a3d5e0;fill-opacity:1" d="m302.848 269.246-49.711-10.074V92.418l49.71 10.074Zm0 0"/><path style="stroke:none;fill-rule:nonzero;fill:#85c0c9;fill-opacity:1" d="m253.137 259.172-94.051 30.226-2.691-166.75 96.742-30.23Zm0 0"/><path style="stroke:none;fill-rule:nonzero;fill:#a3d5e0;fill-opacity:1" d="m159.086 289.398-77.93-20.152V102.492l75.239 20.156Zm0 0"/><path style="stroke:none;fill-rule:nonzero;fill:#fff;fill-opacity:1" d="M207.117 258.977v-23.622l-49.394 18.817-59.59-20.504V121.082l58.234 19.5 28.227-10.586v40.777l32.43-12.039V123.97l35.699-9.281 35.855 8.605v125.809l-34.625-7.774Zm-92.472-37.09 42.789 14.722 66.195-25.214v23.714l29.121-10.976 19.316 4.336v-92.156l-19.183-4.606-19.344 5.031v33.485l-65.46 24.289v-40.684l-11.4 4.274-42.034-14.075Zm0 0"/><path style="stroke:none;fill-rule:nonzero;fill:#d0d7d8;fill-opacity:1" d="m252.723 114.688-35.7 9.28v34.766l-32.433 12.04v-40.778l-27.906 10.469.28 17.531 11.114-4.168v40.684l65.461-24.29v-33.484l19.344-5.031 19.183 4.606v92.156l-19.316-4.336-29.121 10.976v-23.714l-65.399 24.914.282 17.562 48.605-18.516v23.622l46.836-17.649 34.625 7.774V123.293Zm0 0"/><path style="stroke:none;fill-rule:nonzero;fill:#fff;fill-opacity:1" d="m157.434 236.61-42.79-14.723v-77.86l42.032 14.075.289-.106-.281-17.531-.32.117-58.231-19.5v112.586l59.59 20.504.789-.3-.282-17.563ZM288.578 249.102V123.293l-35.441-8.504v16.98l18.93 4.543v92.157l-18.93-4.246v17.414l.816-.309Zm0 0"/></svg>