<svg xmlns="http://www.w3.org/2000/svg" width="px" height="px" viewBox="0 0 384 384"><path style="stroke:none;fill-rule:nonzero;fill:#ea4949;fill-opacity:1" d="M378.059 192.004c0-102.766-83.301-186.063-186.055-186.063C89.242 5.941 5.94 89.238 5.94 192.004c0 102.75 83.301 186.055 186.063 186.055 102.754 0 186.055-83.305 186.055-186.055Zm0 0"/><path style="stroke:none;fill-rule:nonzero;fill:#edbf00;fill-opacity:1" d="m225.898 245.84-.007-.004.039-.043a10.78 10.78 0 0 1 1.425-1.469l7.079-7.281c1.59-1.965 3.37-3.844 4.976-4.531 5.809-2.5 12.805.8 15.633 7.367 2.078 4.836 1.312 10.086-1.547 13.52l-.012.074-9.285 9.605c-1.34 1.531-2.75 2.875-4.047 3.434-5.808 2.5-12.808-.801-15.636-7.371-2.032-4.735-1.34-9.864 1.382-13.301Zm0 0"/><path style="stroke:none;fill-rule:nonzero;fill:#e8ca4b;fill-opacity:1" d="M224.54 259.2c2.831 6.57 9.597 9.968 15.116 7.59 5.52-2.372 7.707-9.626 4.88-16.196-2.825-6.567-9.595-9.965-15.114-7.59-5.524 2.379-7.707 9.625-4.883 16.195Zm0 0"/><path style="stroke:none;fill-rule:nonzero;fill:#ce8505;fill-opacity:1" d="M229.492 257.406c1.25 2.906 4.348 4.367 6.918 3.262 2.57-1.106 3.64-4.36 2.39-7.266-1.25-2.906-4.347-4.367-6.917-3.261-2.57 1.105-3.64 4.359-2.39 7.265Zm0 0"/><path style="stroke:none;fill-rule:nonzero;fill:#ea9c00;fill-opacity:1" d="M236.41 260.672c2.567-1.106 3.64-4.36 2.39-7.266-1.25-2.91-4.35-4.367-6.917-3.261-1.285.55-2.196 1.636-2.63 2.949-.433 1.316 4.587 8.683 7.157 7.578Zm0 0"/><path style="stroke:none;fill-rule:nonzero;fill:#edbf00;fill-opacity:1" d="m69.398 182.133-.003-.004.043-.035c.5-.469 1.042-.883 1.624-1.246l8.055-6.184c1.86-1.71 3.895-3.312 5.582-3.766 6.106-1.632 12.555 2.645 14.403 9.551 1.355 5.086-.165 10.168-3.489 13.156l-.02.067-10.573 8.168c-1.547 1.324-3.141 2.445-4.504 2.808-6.11 1.637-12.559-2.64-14.403-9.55-1.332-4.977.098-9.953 3.285-12.965Zm0 0"/><path style="stroke:none;fill-rule:nonzero;fill:#e8ca4b;fill-opacity:1" d="M66.125 195.16c1.848 6.906 8.05 11.25 13.863 9.695 5.801-1.55 9.016-8.41 7.168-15.32-1.847-6.906-8.054-11.246-13.86-9.695-5.808 1.555-9.015 8.41-7.171 15.32Zm0 0"/><path style="stroke:none;fill-rule:nonzero;fill:#ce8505;fill-opacity:1" d="M71.285 194.105c.817 3.06 3.668 4.95 6.371 4.227 2.703-.723 4.235-3.789 3.414-6.844-.816-3.058-3.672-4.953-6.37-4.23-2.704.726-4.235 3.789-3.415 6.847Zm0 0"/><path style="stroke:none;fill-rule:nonzero;fill:#ea9c00;fill-opacity:1" d="M77.656 198.332c2.703-.723 4.235-3.789 3.414-6.844-.816-3.058-3.672-4.953-6.37-4.23-1.352.363-2.407 1.304-3.028 2.543-.617 1.238 3.281 9.254 5.984 8.531Zm0 0"/><path style="stroke:none;fill-rule:nonzero;fill:#297358;fill-opacity:1" d="M282.453 205.707s60.848 6.563 53.688 25.652c0 0-13.121 35.79-87.094 13.121 0 0-168.227-58.16-191.492-80.53-8.664-8.333-11.93-31.321 10.441-28.637 15.246 1.832 36.984 3.878 79.637 22.074Zm0 0"/><path style="stroke:none;fill-rule:nonzero;fill:#4abc96;fill-opacity:1" d="M282.453 199.441s60.848 6.563 53.688 25.653c0 0-13.121 35.793-87.094 13.125 0 0-168.227-58.164-191.492-80.535-8.664-8.332-9.793-29.22 12.73-28.657 16.102.403 34.695 3.903 77.348 22.094Zm0 0"/><path style="stroke:none;fill-rule:nonzero;fill:#3ca57f;fill-opacity:1" d="M81.559 172.29c-11.348-5.634-19.914-10.673-24.004-14.606-8.668-8.332-9.793-29.22 12.73-28.657 12.04.301 25.477 2.332 49.324 10.95ZM282.453 199.441s60.848 6.563 53.688 25.653c0 0-13.121 35.793-87.094 13.125Zm0 0"/><path style="stroke:none;fill-rule:nonzero;fill:#369975;fill-opacity:1" d="M260.469 219.48a2.626 2.626 0 1 1-5.252 0 2.626 2.626 0 0 1 5.252 0ZM268.469 210.73a2.626 2.626 0 1 1-5.252 0 2.626 2.626 0 0 1 5.252 0ZM105.219 161.73a2.626 2.626 0 1 1-5.252 0 2.626 2.626 0 0 1 5.252 0ZM114.906 152.855a2.626 2.626 0 1 1-5.251 0 2.626 2.626 0 0 1 5.251 0Zm0 0"/></svg>