<svg xmlns="http://www.w3.org/2000/svg" width="px" height="px" viewBox="0 0 384 384"><path style="stroke:none;fill-rule:nonzero;fill:#a076ab;fill-opacity:1" d="M378.059 192.004c0-102.766-83.301-186.063-186.055-186.063C89.242 5.941 5.94 89.238 5.94 192.004c0 102.75 83.301 186.055 186.063 186.055 102.754 0 186.055-83.305 186.055-186.055Zm0 0"/><path style="stroke:none;fill-rule:nonzero;fill:#dbb595;fill-opacity:1" d="M252.906 180.883c-5.75-2.465-12.629.742-15.379 7.164l-33.945 80.762c-2.488 5.824-.297 12.359 4.918 14.593 5.207 2.23 11.453-.68 13.95-6.511l36.695-79.227c2.753-6.418-.5-14.32-6.239-16.781ZM277.402 190.867c-6.004-2.469-13.547-.043-16.203 6.418L223.23 294.36c-2.406 5.856.055 12.426 5.508 14.668 5.442 2.235 11.809-.707 14.219-6.566l41.531-95.113c2.649-6.461-1.078-14.016-7.086-16.48ZM308.844 217.652c2.57-6.5-1.512-14.093-7.32-16.398-5.801-2.3-13.317.7-15.883 7.2l-30.946 80.304c-2.574 6.488.051 13.617 5.856 15.918 5.808 2.304 12.597-1.098 15.172-7.586ZM326.262 208.594c-5.492-2.082-13.18.969-15.657 7.488l-15.359 46.988c-2.148 5.664-.027 11.72 4.738 13.535 4.766 1.81 10.375-1.316 12.524-6.98l15.734-45.816c2.485-6.532 3.508-13.13-1.98-15.215ZM269.395 117.25s-21.961 13.984-33.141 20.582c-5.691 3.39-12.75 16.211-21.457 27.64-8.36 10.985-18.883 18.856-17.738 23.192 3.148 11.895 20.007 3.734 21.925 2.64 16.297-9.324 31.418-29.35 31.418-29.35l27.547-7.852Zm0 0"/><path style="stroke:none;fill-rule:nonzero;fill:#efe4dc;fill-opacity:1" d="M209.281 172.04s-1.277 15.894-12.922 18.573c0 0-4.832-3.312 12.922-18.574Zm0 0"/><path style="stroke:none;fill-rule:nonzero;fill:#e8c7af;fill-opacity:1" d="M297.008 265.34c1.488-4.402 4.77-4.707 8.281-3.516 3.512 1.192 5.926 3.422 4.434 7.824-.106.32-.465 1.766-.606 2.082-1.808 4.122-5.117 5.055-8.375 3.954-3.355-1.137-5.375-4.204-4.156-8.598.059-.211.351-1.543.422-1.746Zm0 0"/><path style="stroke:none;fill-rule:nonzero;fill:#f7f3f0;fill-opacity:1" d="M297.07 265.586c1.496-4.207 4.653-4.453 8.012-3.258 3.36 1.195 5.645 3.379 4.148 7.59-.109.3-.988 3.41-1.128 3.715-1.801 3.933-4.758 7.441-8.926 5.953-4.172-1.484-4.285-6.399-3.055-10.61.059-.199.879-3.199.95-3.39Zm0 0"/><path style="stroke:none;fill-rule:nonzero;fill:#efe4dc;fill-opacity:1" d="M297.285 265.691c1.496-4.21 4.652-4.453 8.008-3.257 3.36 1.195 5.648 3.378 4.152 7.586a54.16 54.16 0 0 1-.734 1.898c-1.8 3.934-4.996 4.781-8.11 3.672-3.206-1.14-5.105-4.117-3.87-8.324.058-.204.484-1.383.554-1.575Zm0 0"/><path style="stroke:none;fill-rule:nonzero;fill:#e8c7af;fill-opacity:1" d="M257.363 290.805c1.977-5.305 5.977-5.555 10.211-3.977 4.227 1.578 7.086 4.387 5.11 9.692-.141.378-.63 2.128-.817 2.511-2.351 4.95-6.418 5.965-10.34 4.5-4.039-1.504-6.386-5.308-4.742-10.617.078-.254.492-1.867.578-2.11Zm0 0"/><path style="stroke:none;fill-rule:nonzero;fill:#f7f3f0;fill-opacity:1" d="M257.43 291.11c1.98-5.07 5.828-5.25 9.87-3.673 4.044 1.579 6.755 4.32 4.774 9.391-.144.363-1.332 4.113-1.515 4.48-2.332 4.72-6.059 8.883-11.079 6.922-5.023-1.96-4.988-7.949-3.332-13.023.082-.246 1.188-3.867 1.282-4.098Zm0 0"/><path style="stroke:none;fill-rule:nonzero;fill:#efe4dc;fill-opacity:1" d="M257.688 291.242c1.976-5.07 5.824-5.25 9.87-3.672 4.044 1.582 6.75 4.325 4.77 9.39-.14.368-.781 1.919-.96 2.286-2.337 4.719-6.259 5.637-10.013 4.172-3.859-1.508-6.058-5.2-4.402-10.277.082-.243.64-1.664.735-1.899Zm0 0"/><path style="stroke:none;fill-rule:nonzero;fill:#e8c7af;fill-opacity:1" d="M225.727 294.54c2.324-5.165 6.335-5.145 10.453-3.29 4.113 1.855 6.78 4.848 4.457 10.008-.172.37-.774 2.082-.985 2.453-2.672 4.781-6.8 5.523-10.617 3.8-3.93-1.769-6.02-5.722-4.027-10.906.097-.25.613-1.832.719-2.066Zm0 0"/><path style="stroke:none;fill-rule:nonzero;fill:#f7f3f0;fill-opacity:1" d="M225.773 294.844c2.309-4.926 6.165-4.852 10.094-3.008 3.926 1.844 6.45 4.762 4.137 9.687-.168.356-1.602 4.016-1.809 4.372-2.64 4.554-6.636 8.46-11.515 6.171-4.88-2.293-4.446-8.265-2.457-13.218.097-.239 1.441-3.778 1.55-4.004Zm0 0"/><path style="stroke:none;fill-rule:nonzero;fill:#efe4dc;fill-opacity:1" d="M226.02 294.996c2.308-4.926 6.164-4.851 10.093-3.008 3.93 1.844 6.45 4.762 4.14 9.688-.171.355-.91 1.86-1.116 2.215-2.64 4.554-6.617 5.207-10.262 3.496-3.75-1.758-5.703-5.59-3.71-10.547.093-.238.75-1.617.855-1.844Zm0 0"/><path style="stroke:none;fill-rule:nonzero;fill:#e8c7af;fill-opacity:1" d="M205.559 269.523c2.324-5.164 6.332-5.144 10.449-3.293 4.117 1.856 6.781 4.848 4.457 10.012-.168.371-.77 2.078-.98 2.45-2.676 4.78-6.801 5.527-10.622 3.804-3.93-1.77-6.015-5.723-4.023-10.906.097-.25.613-1.832.719-2.067Zm0 0"/><path style="stroke:none;fill-rule:nonzero;fill:#f7f3f0;fill-opacity:1" d="M205.602 269.828c2.312-4.926 6.168-4.851 10.093-3.008 3.93 1.844 6.453 4.762 4.14 9.688-.167.355-1.6 4.015-1.808 4.37-2.64 4.556-6.64 8.462-11.515 6.169-4.883-2.29-4.446-8.262-2.457-13.215.093-.242 1.441-3.777 1.547-4.004Zm0 0"/><path style="stroke:none;fill-rule:nonzero;fill:#efe4dc;fill-opacity:1" d="M205.848 269.98c2.316-4.925 6.168-4.851 10.097-3.007 3.93 1.843 6.45 4.761 4.137 9.687-.168.356-.906 1.86-1.113 2.215-2.645 4.555-6.617 5.207-10.262 3.496-3.754-1.758-5.703-5.59-3.71-10.543.093-.242.75-1.621.85-1.848Zm0 0"/><path style="stroke:none;fill-rule:nonzero;fill:#cea98d;fill-opacity:1" d="M257 147.375s-5.637 8.441-8.523 13.695c-2.86 5.203-8.91 21.895-8.91 21.895s6.69-14.809 10.44-21.094c3.727-6.242 8.313-12.984 8.313-12.984Zm0 0"/><path style="stroke:none;fill-rule:nonzero;fill:#dbb595;fill-opacity:1" d="m263.715 121.063-28.899 74.074L276 213l34.113 7.645 18.59 2.242s16.356-33.723 22.973-55.348c6.476-21.156 7.234-33.351 9.254-53.594-12.543-27.105-31.414-50.68-54.72-68.828l-15.112 41.23c-4.555 5.407-27.383 34.716-27.383 34.716ZM55.297 222.887l18.59-2.242L108 213l41.184-17.863-28.899-74.075s-22.828-29.304-27.383-34.71L77.79 45.122C54.484 63.265 35.613 86.843 23.07 113.944c2.016 20.246 2.778 32.438 9.254 53.594 6.617 21.629 22.973 55.348 22.973 55.348Zm0 0"/><path style="stroke:none;fill-rule:nonzero;fill:#dbb595;fill-opacity:1" d="M131.094 180.883c5.75-2.465 12.629.742 15.379 7.164l33.945 80.762c2.488 5.824.297 12.359-4.918 14.593-5.207 2.23-11.453-.68-13.95-6.511l-36.695-79.227c-2.75-6.418.5-14.32 6.239-16.781ZM106.598 190.867c6.004-2.469 13.55-.043 16.203 6.418l37.969 97.074c2.406 5.856-.055 12.426-5.508 14.668-5.442 2.235-11.809-.707-14.219-6.566l-41.531-95.113c-2.649-6.461 1.078-14.016 7.086-16.48ZM75.156 217.652c-2.57-6.5 1.512-14.093 7.32-16.398 5.801-2.3 13.317.7 15.883 7.2l30.946 80.304c2.574 6.488-.051 13.617-5.856 15.918-5.808 2.304-12.597-1.098-15.172-7.586ZM57.738 208.594c5.492-2.082 13.18.969 15.657 7.488l15.359 46.988c2.148 5.664.027 11.72-4.738 13.535-4.766 1.81-10.375-1.316-12.524-6.98l-15.734-45.816c-2.485-6.532-3.508-13.13 1.98-15.215ZM114.605 117.25s21.961 13.984 33.141 20.582c5.691 3.39 12.75 16.211 21.457 27.64 8.36 10.985 18.883 18.856 17.738 23.192-3.148 11.895-20.004 3.734-21.925 2.64-16.297-9.324-31.418-29.35-31.418-29.35l-27.547-7.852Zm0 0"/><path style="stroke:none;fill-rule:nonzero;fill:#efe4dc;fill-opacity:1" d="M174.719 172.04s1.277 15.894 12.922 18.573c0 0 4.832-3.312-12.922-18.574Zm0 0"/><path style="stroke:none;fill-rule:nonzero;fill:#e8c7af;fill-opacity:1" d="M86.992 265.34c-1.488-4.402-4.77-4.707-8.281-3.516-3.512 1.192-5.926 3.422-4.434 7.824.106.32.465 1.766.606 2.082 1.808 4.122 5.117 5.055 8.375 3.954 3.355-1.137 5.375-4.204 4.156-8.598-.059-.211-.352-1.543-.422-1.746Zm0 0"/><path style="stroke:none;fill-rule:nonzero;fill:#f7f3f0;fill-opacity:1" d="M86.93 265.586c-1.496-4.207-4.653-4.453-8.012-3.258-3.36 1.195-5.645 3.379-4.148 7.59.109.3.988 3.41 1.128 3.715 1.801 3.933 4.758 7.441 8.926 5.953 4.172-1.484 4.285-6.399 3.055-10.61-.059-.199-.879-3.199-.95-3.39Zm0 0"/><path style="stroke:none;fill-rule:nonzero;fill:#efe4dc;fill-opacity:1" d="M86.715 265.691c-1.496-4.21-4.653-4.453-8.008-3.257-3.36 1.195-5.648 3.378-4.148 7.586.109.304.593 1.593.73 1.898 1.8 3.934 4.996 4.781 8.11 3.672 3.206-1.14 5.105-4.117 3.87-8.324a62.127 62.127 0 0 0-.554-1.575Zm0 0"/><path style="stroke:none;fill-rule:nonzero;fill:#e8c7af;fill-opacity:1" d="M126.637 290.805c-1.977-5.305-5.977-5.555-10.211-3.977-4.227 1.578-7.086 4.387-5.11 9.692.141.378.63 2.128.817 2.511 2.351 4.95 6.418 5.965 10.34 4.5 4.039-1.504 6.386-5.308 4.742-10.617-.078-.254-.492-1.867-.578-2.11Zm0 0"/><path style="stroke:none;fill-rule:nonzero;fill:#f7f3f0;fill-opacity:1" d="M126.57 291.11c-1.98-5.07-5.828-5.25-9.87-3.673-4.044 1.579-6.755 4.32-4.774 9.391.144.363 1.332 4.113 1.515 4.48 2.332 4.72 6.059 8.883 11.079 6.922 5.023-1.96 4.988-7.949 3.332-13.023-.082-.246-1.188-3.867-1.282-4.098Zm0 0"/><path style="stroke:none;fill-rule:nonzero;fill:#efe4dc;fill-opacity:1" d="M126.313 291.242c-1.977-5.07-5.825-5.25-9.872-3.672-4.043 1.582-6.75 4.325-4.77 9.39.141.368.782 1.919.962 2.286 2.336 4.719 6.258 5.637 10.012 4.172 3.859-1.508 6.058-5.2 4.402-10.277-.082-.243-.64-1.664-.734-1.899Zm0 0"/><path style="stroke:none;fill-rule:nonzero;fill:#e8c7af;fill-opacity:1" d="M158.273 294.54c-2.324-5.165-6.335-5.145-10.453-3.29-4.113 1.855-6.78 4.848-4.457 10.008.172.37.774 2.082.985 2.453 2.672 4.781 6.8 5.523 10.617 3.8 3.93-1.769 6.02-5.722 4.027-10.906-.097-.25-.613-1.832-.719-2.066Zm0 0"/><path style="stroke:none;fill-rule:nonzero;fill:#f7f3f0;fill-opacity:1" d="M158.227 294.844c-2.309-4.926-6.165-4.852-10.094-3.008-3.926 1.844-6.45 4.762-4.137 9.687.168.356 1.602 4.016 1.809 4.372 2.64 4.554 6.636 8.46 11.515 6.171 4.88-2.293 4.446-8.265 2.457-13.218-.097-.239-1.441-3.778-1.55-4.004Zm0 0"/><path style="stroke:none;fill-rule:nonzero;fill:#efe4dc;fill-opacity:1" d="M157.98 294.996c-2.308-4.926-6.164-4.851-10.093-3.008-3.93 1.844-6.45 4.762-4.14 9.688.171.355.91 1.86 1.116 2.215 2.64 4.554 6.617 5.207 10.262 3.496 3.75-1.758 5.703-5.59 3.71-10.547-.093-.238-.75-1.617-.855-1.844Zm0 0"/><path style="stroke:none;fill-rule:nonzero;fill:#e8c7af;fill-opacity:1" d="M178.441 269.523c-2.324-5.164-6.332-5.144-10.449-3.293-4.117 1.856-6.781 4.848-4.457 10.012.168.371.77 2.078.98 2.45 2.676 4.78 6.801 5.527 10.622 3.804 3.93-1.77 6.015-5.723 4.023-10.906-.097-.25-.613-1.832-.719-2.067Zm0 0"/><path style="stroke:none;fill-rule:nonzero;fill:#f7f3f0;fill-opacity:1" d="M178.398 269.828c-2.312-4.926-6.168-4.851-10.093-3.008-3.93 1.844-6.453 4.762-4.14 9.688.167.355 1.6 4.015 1.808 4.37 2.64 4.556 6.64 8.462 11.515 6.169 4.883-2.29 4.446-8.262 2.457-13.215-.093-.242-1.441-3.777-1.547-4.004Zm0 0"/><path style="stroke:none;fill-rule:nonzero;fill:#efe4dc;fill-opacity:1" d="M178.152 269.98c-2.316-4.925-6.168-4.851-10.097-3.007-3.93 1.843-6.45 4.761-4.137 9.687.168.356.906 1.86 1.113 2.215 2.645 4.555 6.617 5.207 10.262 3.496 3.754-1.758 5.703-5.59 3.71-10.543-.093-.242-.75-1.621-.85-1.848Zm0 0"/><path style="stroke:none;fill-rule:nonzero;fill:#cea98d;fill-opacity:1" d="M127 147.375s5.637 8.441 8.523 13.695c2.86 5.203 8.91 21.895 8.91 21.895s-6.69-14.809-10.44-21.094c-3.723-6.242-8.313-12.984-8.313-12.984Zm0 0"/><path style="stroke:none;fill-rule:nonzero;fill:#fff;fill-opacity:1" d="M278.918 174.738c3.676 9.102 4.59 32.414-4.426 36.055-9.02 3.64-24.273-13.086-28.226-22.871-5.364-13.29-.223-21.61 8.793-25.25 9.02-3.64 18.492-1.223 23.859 12.066Zm0 0"/><path style="stroke:none;fill-rule:nonzero;fill:#f4e028;fill-opacity:1" d="M275.832 193.715c2.422 5.992 1.07 16.492-1.484 17.523-2.453.989-10.825-5.582-13.243-11.578-2.421-5.996.41-8.484 4.477-10.125 4.066-1.644 7.828-1.816 10.25 4.18Zm0 0"/><path style="stroke:none;fill-rule:nonzero;fill:#fff;fill-opacity:1" d="M314.691 212.273c-8.546 4.832-31.539 8.786-36.328.32-4.789-8.464 9.805-25.773 18.989-30.968 12.472-7.059 21.39-3.047 26.183 5.414 4.785 8.469 3.63 18.176-8.844 25.234Zm0 0"/><path style="stroke:none;fill-rule:nonzero;fill:#f4e028;fill-opacity:1" d="M295.473 211.691c-5.625 3.184-16.211 3.215-17.57.817-1.301-2.297 4.124-11.457 9.75-14.64 5.628-3.184 8.464-.704 10.624 3.116 2.16 3.817 2.825 7.524-2.804 10.707Zm0 0"/><path style="stroke:none;fill-rule:nonzero;fill:#fff;fill-opacity:1" d="M295.86 252.848c-7.864-5.875-20.739-25.332-14.919-33.125 5.82-7.79 27.54-1.399 35.993 4.918 11.48 8.574 11.402 18.351 5.582 26.144-5.82 7.793-15.176 10.64-26.657 2.063Zm0 0"/><path style="stroke:none;fill-rule:nonzero;fill:#f4e028;fill-opacity:1" d="M288.656 235.023c-5.18-3.867-9.469-13.546-7.82-15.753 1.578-2.118 12.144-.84 17.324 3.03 5.18 3.868 4.05 7.466 1.426 10.981-2.625 3.512-5.75 5.614-10.93 1.742Zm0 0"/><path style="stroke:none;fill-rule:nonzero;fill:#fff;fill-opacity:1" d="M251.68 251.39c1.379-9.718 12.27-30.35 21.898-28.984 9.633 1.367 14.45 23.489 12.965 33.934-2.016 14.191-10.633 18.816-20.262 17.445-9.625-1.363-16.617-8.203-14.601-22.394Zm0 0"/><path style="stroke:none;fill-rule:nonzero;fill:#f4e028;fill-opacity:1" d="M263.86 236.516c.91-6.399 7.34-14.809 10.066-14.422 2.617.37 6.566 10.254 5.66 16.656-.91 6.402-4.61 7.137-8.95 6.52-4.343-.618-7.687-2.352-6.777-8.754Zm0 0"/><path style="stroke:none;fill-rule:nonzero;fill:#fff;fill-opacity:1" d="M236.5 204.535c9.59-2.094 32.727.914 34.8 10.414 2.079 9.504-16.972 21.735-27.28 23.988-14 3.06-21.34-3.406-23.415-12.906-2.078-9.5 1.895-18.433 15.895-21.496Zm0 0"/><path style="stroke:none;fill-rule:nonzero;fill:#f4e028;fill-opacity:1" d="M254.691 210.762c6.313-1.38 16.438 1.71 17.024 4.402.566 2.586-7.317 9.734-13.633 11.113-6.316 1.383-8.297-1.828-9.234-6.113-.934-4.285-.477-8.023 5.843-9.402Zm0 0"/><path style="stroke:none;fill-rule:nonzero;fill:#f4e028;fill-opacity:1" d="M266.777 220.672c-1.984-4.91.598-10.582 5.758-12.668 5.164-2.086 10.961.207 12.942 5.117 1.988 4.914-.594 10.59-5.758 12.672-5.16 2.086-10.957-.207-12.942-5.121Zm0 0"/><path style="stroke:none;fill-rule:nonzero;fill:#e2cb23;fill-opacity:1" d="M269.96 219.39c-1.218-3.019.556-6.585 3.958-7.956 3.41-1.375 7.16-.043 8.379 2.972 1.219 3.02-.555 6.586-3.961 7.961-3.406 1.375-7.156.04-8.375-2.976Zm0 0"/></svg>