<svg xmlns="http://www.w3.org/2000/svg" width="px" height="px" viewBox="0 0 384 384"><path style="stroke:none;fill-rule:nonzero;fill:#a3d5e0;fill-opacity:1" d="M378.059 192.004c0-102.766-83.301-186.063-186.055-186.063C89.242 5.941 5.94 89.238 5.94 192.004c0 102.75 83.301 186.055 186.063 186.055 102.754 0 186.055-83.305 186.055-186.055Zm0 0"/><path style="stroke:none;fill-rule:nonzero;fill:#81b23b;fill-opacity:1" d="M378.059 192.004H5.94c0 102.75 83.301 186.055 186.063 186.055 102.754 0 186.055-83.305 186.055-186.055Zm0 0"/><path style="stroke:none;fill-rule:nonzero;fill:#64a80d;fill-opacity:1" d="M282.395 211.25c-.004.066-.004.137-.008.203h.015c-.004-.07-.007-.137-.007-.203ZM101.602 211.363h.007c0-.043 0-.082-.004-.125 0 .043-.003.082-.003.125Zm0 0"/><path style="stroke:none;fill-rule:nonzero;fill:#eac218;fill-opacity:1" d="M245.371 173.605c0 37.516-23.351 85.715-52.16 85.715-28.805 0-52.156-48.203-52.156-85.715 0-37.515 23.351-32.347 52.156-32.347 28.809 0 52.16-5.168 52.16 32.347Zm0 0"/><path style="stroke:none;fill-rule:nonzero;fill:#efc929;fill-opacity:1" d="M258.309 125.086c0 37.516-29.145 61.457-65.098 61.457-35.95 0-65.094-23.941-65.094-61.457 0-37.516 29.145-56.606 65.094-56.606 35.953 0 65.098 19.09 65.098 56.606Zm0 0"/><path style="stroke:none;fill-rule:nonzero;fill:#efc929;fill-opacity:1" d="M176.758 79.73s-9.11-22.992-4.336-24.726C176.508 53.52 180.5 64.48 180 74.98c-.094 2.004-2.742 2.575-3.242 4.75ZM199.695 76.637s8.254-20.828 3.93-22.399c-3.586-1.304-8.176 8.774-7.125 18.992.215 2.094 2.664 1.067 3.195 3.407ZM188.98 79.184s2.774-1.34 3.27-4.704c1.23-8.324.445-23.882-3.715-24.554-5.844-.942-6.851 12.636.445 29.258Zm0 0"/><path style="stroke:none;fill-rule:nonzero;fill:#f4ebc9;fill-opacity:1" d="M192 316.664c53.852 0 97.504-40.672 97.504-107.398 0-11.696-1.344-23.649-3.844-35.418l-.664-1.051-12.133 25.066-18.597-44.476-19.407 20.218-15.363-12.937-12.941 29.918-18.598-20.215-12.129 14.555-14.555-26.684-10.515 26.684-18.598-16.172-13.746 9.703-14.559-9.703-5.039 2.918c-2.808 12.469-4.32 25.18-4.32 37.594 0 66.726 43.652 107.398 97.504 107.398Zm0 0"/><path style="stroke:none;fill-rule:nonzero;fill:#eaaf0a;fill-opacity:1" d="M205.102 131.89a1.491 1.491 0 0 0-1.243-.66h-20.953a1.501 1.501 0 0 0-1.379 2.086l10.23 18.696c.235.55.782.91 1.384.91h.015a1.498 1.498 0 0 0 1.375-.942l10.723-18.69a1.497 1.497 0 0 0-.152-1.4Zm0 0"/><path style="stroke:none;fill-rule:nonzero;fill:#e5ba03;fill-opacity:1" d="M171.047 115.785c0-7.262-4.945-13.148-11.047-13.148s-11.047 5.886-11.047 13.148c0 7.266 4.945 13.153 11.047 13.153s11.047-5.887 11.047-13.153Zm0 0"/><path style="stroke:none;fill-rule:nonzero;fill:#474747;fill-opacity:1" d="M169.031 115.785c0-6.004-3.969-10.87-8.863-10.87-4.89 0-8.86 4.866-8.86 10.87 0 6.008 3.97 10.875 8.86 10.875 4.894 0 8.863-4.867 8.863-10.875Zm0 0"/><path style="stroke:none;fill-rule:nonzero;fill:#e2e2e2;fill-opacity:1" d="M165.344 110.672c0-1.938-1.281-3.504-2.86-3.504-1.574 0-2.855 1.566-2.855 3.504 0 1.937 1.281 3.508 2.855 3.508 1.578 0 2.86-1.57 2.86-3.508Zm0 0"/><path style="stroke:none;fill-rule:nonzero;fill:#e5ba03;fill-opacity:1" d="M236.746 115.785c0-7.262-4.945-13.148-11.047-13.148-6.101 0-11.047 5.886-11.047 13.148 0 7.266 4.946 13.153 11.047 13.153 6.102 0 11.047-5.887 11.047-13.153Zm0 0"/><path style="stroke:none;fill-rule:nonzero;fill:#474747;fill-opacity:1" d="M234.719 115.785c0-6.004-3.969-10.87-8.864-10.87-4.894 0-8.859 4.866-8.859 10.87 0 6.008 3.965 10.875 8.86 10.875 4.894 0 8.863-4.867 8.863-10.875Zm0 0"/><path style="stroke:none;fill-rule:nonzero;fill:#e2e2e2;fill-opacity:1" d="M231.043 110.672c0-1.938-1.277-3.504-2.856-3.504-1.578 0-2.855 1.566-2.855 3.504 0 1.937 1.277 3.508 2.856 3.508 1.578 0 2.855-1.57 2.855-3.508Zm0 0"/></svg>